<svg width="60" height="60" viewBox="0 0 60 60" fill="none" xmlns="http://www.w3.org/2000/svg">
<path d="M53.6198 25.8413H34.438C33.9522 25.8413 33.5586 26.2347 33.5586 26.7202C33.5586 27.2057 33.9522 27.5991 34.438 27.5991H53.6198C54.1056 27.5991 54.4992 27.2057 54.4992 26.7202C54.4992 26.2347 54.1055 25.8413 53.6198 25.8413Z" fill="#E31F26"/>
<path d="M54.4992 30.6548C54.4992 30.1693 54.1056 29.7759 53.6198 29.7759H34.438C33.9522 29.7759 33.5586 30.1693 33.5586 30.6548C33.5586 31.1403 33.9522 31.5337 34.438 31.5337H53.6198C54.1055 31.5337 54.4992 31.1402 54.4992 30.6548Z" fill="#E31F26"/>
<path d="M34.438 33.7109C33.9522 33.7109 33.5586 34.1043 33.5586 34.5898C33.5586 35.0754 33.9522 35.4688 34.438 35.4688H44.0289C44.5147 35.4688 44.9083 35.0754 44.9083 34.5898C44.9083 34.1043 44.5147 33.7109 44.0289 33.7109H34.438Z" fill="#E31F26"/>
<path d="M59.1206 18.6304C59.6064 18.6304 60 18.237 60 17.7514V12.5735C60 11.8521 59.7498 11.1693 59.2914 10.623C59.2906 10.6221 59.2899 10.6213 59.2891 10.6204C59.232 10.5524 59.1722 10.4863 59.1086 10.4228L49.571 0.890742C49.5076 0.827461 49.4417 0.768047 49.3741 0.711094C49.3729 0.710039 49.3717 0.708984 49.3704 0.708047C48.8239 0.249961 48.1408 0 47.4191 0H21.4461C19.0757 0 17.1471 1.92738 17.1471 4.29644V6.89848H8.98538C8.16822 6.89848 7.50337 7.56281 7.50337 8.37949C7.50337 9.61312 7.86593 10.763 8.48798 11.7312C7.85936 12.4054 7.50149 13.2954 7.50149 14.2433V17.5267C7.09039 18.0475 6.8669 18.6865 6.86737 19.3601L6.86913 21.6353C6.87007 23.0571 8.02763 24.2133 9.44983 24.2132H9.45124H10.1903C10.4463 26.3113 11.4371 28.2261 12.9822 29.5605C13.2635 29.8035 13.5526 30.026 13.8485 30.2311V32.0532C13.8485 32.276 13.792 32.4954 13.6891 32.6911C13.3106 32.6653 12.9252 32.7298 12.5672 32.8905L10.9067 33.6355C10.7453 33.7079 10.6007 33.8051 10.4736 33.9197C8.67629 34.5168 7.05228 35.3053 5.64708 36.2691C5.24665 36.5438 5.14487 37.0908 5.41972 37.4911C5.69375 37.8902 6.24122 37.9938 6.64247 37.7183C7.67257 37.0118 8.83904 36.408 10.1187 35.9135C10.1694 36.0098 10.2282 36.1029 10.2987 36.1897L12.5141 38.9187C13.2018 39.7656 14.2808 40.174 15.3599 39.973L16.5127 41.4844L13.8145 58.2422H8.25675V50.8983C8.25675 50.4128 7.86311 50.0194 7.37732 50.0194C6.89153 50.0194 6.4979 50.4128 6.4979 50.8983V58.2422H3.8092C2.67861 58.2422 1.75885 57.3229 1.75885 56.193V46.803C1.75885 44.3357 2.45723 42.1642 3.83453 40.3487C4.1279 39.9619 4.05204 39.4106 3.66509 39.1173C3.27791 38.8241 2.72657 38.8998 2.43296 39.2866C0.818569 41.4146 0 43.9434 0 46.803V56.193C0 58.2922 1.7089 60 3.80932 60H33.5946C35.695 60 37.4038 58.2922 37.4038 56.193V55.2957H55.9001C58.1607 55.2957 60 53.4577 60 51.1984V21.9144C60 21.4289 59.6064 21.0355 59.1206 21.0355C58.6348 21.0355 58.2411 21.4289 58.2411 21.9144V51.1984C58.2411 52.4884 57.191 53.5379 55.9001 53.5379H37.4038V46.803C37.4038 40.2859 33.1175 35.9745 26.9268 33.9165C26.5936 33.6178 26.4129 33.6232 24.8367 32.8903C24.4787 32.7296 24.0933 32.6652 23.7149 32.691C23.612 32.4953 23.5555 32.2759 23.5555 32.0531V30.2312C23.8513 30.0261 24.1406 29.8035 24.422 29.5605C25.9671 28.2262 26.958 26.3113 27.2141 24.2129C27.6445 24.213 27.5231 24.213 27.9545 24.2132C29.3768 24.2132 30.5346 23.057 30.5356 21.6353L30.5373 19.36C30.5377 18.6854 30.3135 18.0455 29.9012 17.5242L29.9009 13.6734C29.9007 9.93785 26.8595 6.89859 23.1216 6.89859H18.9061V4.29644C18.9061 2.89664 20.0456 1.75781 21.4462 1.75781H47.4192C47.4248 1.75781 47.4303 1.75852 47.4361 1.75863V8.26019C47.4361 10.6293 49.3646 12.5566 51.735 12.5566L58.2404 12.5565C58.2406 12.5621 58.2413 12.5678 58.2413 12.5734V17.7513C58.2411 18.2368 58.6348 18.6304 59.1206 18.6304ZM10.1428 16.3936H9.83174C9.63768 16.3937 9.44667 16.4125 9.26034 16.4488V14.2433C9.26034 13.8138 9.40152 13.4073 9.65292 13.0765C9.99508 13.3734 10.3687 13.635 10.7699 13.8525C10.4139 14.6542 10.2012 15.5138 10.1428 16.3936ZM9.45054 22.4552C9.45042 22.4552 9.4503 22.4552 9.45018 22.4552C8.99699 22.4552 8.6281 22.0869 8.62786 21.6339L8.6261 19.3587C8.62564 18.6913 9.16595 18.1516 9.83209 18.1514H10.1259V22.4551L9.45054 22.4552ZM13.8797 37.8109L11.7477 35.1848L13.2875 34.4939C13.4315 34.4292 13.5932 34.4261 13.7372 34.4798C13.739 34.4805 13.7407 34.481 13.7425 34.4817C13.8971 34.5412 13.7312 34.4544 17.14 37.0965L15.4416 38.0936C14.9274 38.3952 14.2673 38.2884 13.8797 37.8109ZM18.7019 38.2182L20.4579 39.2491L19.5443 40.3725H17.876L16.9964 39.2194L18.7019 38.2182ZM18.19 42.1303H19.2137L21.808 58.2422H15.5958L18.19 42.1303ZM35.645 46.803V56.193C35.645 57.323 34.7251 58.2422 33.5946 58.2422H30.9059V50.8983C30.9059 50.4128 30.5123 50.0194 30.0265 50.0194C29.5407 50.0194 29.1471 50.4128 29.1471 50.8983V58.2422H23.5895L20.8938 41.5004L22.125 39.9864C22.2781 40.0105 22.4317 40.024 22.5849 40.024C23.4531 40.024 24.3039 39.6407 24.8901 38.9186L27.1056 36.1895C27.1762 36.1025 27.2352 36.0091 27.2861 35.9125C30.8275 37.2844 35.645 40.3395 35.645 46.803ZM25.6561 35.1848L23.5241 37.8109C23.1413 38.2826 22.4838 38.3998 21.9622 38.0934L20.2638 37.0964C23.7102 34.425 23.5076 34.5407 23.6612 34.4816C23.663 34.481 23.6647 34.4804 23.6665 34.4797C23.8104 34.4259 23.9721 34.4292 24.1162 34.4937H24.1163L25.6561 35.1848ZM22.116 33.4247L18.7019 36.0845L15.2877 33.4247C15.4949 32.9999 15.6071 32.5298 15.6071 32.053V31.1934C17.7335 32.0694 19.5835 32.1052 21.7965 31.1936V32.053C21.7966 32.53 21.9088 33 22.116 33.4247ZM23.2719 28.2304C20.5037 30.6212 17.051 30.7513 14.1322 28.2304C12.7555 27.0414 11.9367 25.253 11.8849 23.3222V16.8921C11.8849 16.048 12.0705 15.2197 12.4245 14.4629C12.8455 14.553 13.2818 14.6016 13.7293 14.6016H23.3861C24.5625 14.6016 25.5194 15.5579 25.5194 16.7336V23.3222C25.4674 25.253 24.6486 27.0416 23.2719 28.2304ZM28.7767 21.6339C28.7763 22.0869 28.4077 22.4552 27.9543 22.4552C27.9423 22.4552 27.2662 22.455 27.2781 22.455V18.1514C27.4418 18.1775 27.9103 18.0312 28.4255 18.5057C28.6531 18.7336 28.7784 19.0364 28.7782 19.3587L28.7767 21.6339ZM28.142 13.6734L28.1421 16.4486C27.7498 16.3725 27.4881 16.3995 27.2635 16.3936C27.0905 14.4074 25.4176 12.8439 23.3861 12.8439H13.7293C11.3592 12.8439 9.41442 10.9895 9.2709 8.65641H23.1216C25.8896 8.65629 28.1417 10.907 28.142 13.6734ZM49.1947 8.26019V3.0007L56.9972 10.7987L51.7348 10.7988C50.3342 10.7988 49.1947 9.66012 49.1947 8.26019Z" fill="#E31F26"/>
<path d="M54.4992 17.6091C54.4992 16.8022 53.8424 16.146 53.0352 16.146H35.0227C34.2153 16.146 33.5586 16.8024 33.5586 17.6091V22.0022C33.5586 22.809 34.2155 23.4654 35.0227 23.4654H53.035C53.8424 23.4654 54.4991 22.8089 54.4991 22.0022V17.6091H54.4992ZM52.7404 21.7076H35.3174V17.9037H52.7404V21.7076Z" fill="#E31F26"/>
</svg>
