<svg width="32" height="47" viewBox="0 0 32 47" fill="none" xmlns="http://www.w3.org/2000/svg">
<path d="M15.9998 0C7.17739 0 0 7.72707 0 17.2252C0 21.5884 2.55367 27.7531 7.5904 35.5483C11.2719 41.2466 14.8927 45.656 15.0452 45.8411L15.9998 47L16.9548 45.8411C17.107 45.656 20.7278 41.2466 24.4096 35.5483C29.446 27.7531 32 21.5884 32 17.2252C32 7.72707 24.8223 0 15.9998 0ZM25 26C22.5116 29.854 17.825 28.8079 16.5 30.5C15.1784 28.8125 10.4867 30.849 8 27C3.33331 19.7775 2.55234 20.963 2.55234 17.2252C2.55234 9.24244 8.58496 2.74781 15.9998 2.74781C23.415 2.74781 29.4473 9.24244 29.4473 17.2252C29.4473 20.9591 29.6574 18.7878 25 26Z" fill="#E31F26"/>
</svg>
