<svg width="420" height="97" viewBox="0 0 420 97" fill="none" xmlns="http://www.w3.org/2000/svg">
<g clip-path="url(#clip0_400_162)">
<path d="M94.3298 70.7529C94.3298 80.506 86.3466 88.4455 76.5232 88.4455H31.6766C24.3646 88.4455 18.0735 84.0389 15.3395 77.7663L16.9008 76.4175L20.1611 67.1955L13.8736 56.6142V26.2401C13.8736 16.487 21.8637 8.55101 31.6766 8.55101H76.5232C86.3466 8.55101 94.3298 16.487 94.3298 26.2401V70.7564V70.7529ZM76.5232 0H31.6766C17.1127 0 5.26172 11.7729 5.26172 26.2366V70.7529C5.26172 85.2201 17.1127 97 31.6766 97H76.5232C91.0977 97 102.945 85.2201 102.945 70.7529V26.2366C102.945 11.7729 91.1012 0 76.5232 0V0Z" fill="#E6E7E8"/>
<path d="M84.1439 69.0546C85.0447 69.3516 86.0973 69.5194 87.3124 69.5194C92.0917 69.5194 94.3347 67.6393 94.3347 65.3889C94.3347 62.7645 90.753 62.7715 90.3821 60.4652C89.9193 57.5787 90.2125 44.8029 95.2037 37.737L98.5382 39.2326C98.5382 39.2326 99.4884 39.7673 100.636 39.7184C101.378 39.6834 102.152 39.3549 102.894 38.5617C104.78 36.5594 109.965 30.0352 111.622 26.6175C112.032 25.7754 105.009 17.0601 101.067 13.8941C98.3722 11.752 94.96 10.4765 91.2404 10.4765C84.363 10.4765 78.5169 14.8446 76.3551 20.939C71.9644 24.0456 63.2007 29.0532 54.0413 31.4539C43.2818 34.2705 32.1302 31.6391 24.5568 32.0165C14.8182 32.5023 9.0216 39.5961 9.25827 47.7976C9.49141 56.139 15.2703 63.722 15.2703 71.5462C15.2703 77.679 10.2403 80.3837 6.77857 80.3837C2.63866 80.3837 2.36314 78.7064 1.10562 78.7064C0.596966 78.7064 0 79.1292 0 79.8002C0 81.8724 5.1219 83.8468 8.03255 83.8468C15.7896 83.8468 19.0287 78.3465 19.0287 78.3465C19.0287 78.3465 21.0033 84.0425 28.6544 84.0425C34.7583 84.0425 37.404 81.1455 37.404 78.7204C37.404 76.76 36.1995 75.9213 35.3376 74.7681C34.1224 73.1327 34.1684 71.1303 34.1684 71.1303C34.1684 71.1303 35.5 71.3435 37.4852 71.3435C41.9183 71.3435 43.2889 69.5613 43.2889 67.8036C43.2889 65.5426 40.6219 65.7034 40.6219 61.9922C40.6219 59.1862 42.1938 58.2601 43.5714 58.2601C45.0621 58.2601 50.7174 58.7983 57.5737 59.4937C59.8626 59.7208 65.5744 61.9189 65.5744 70.7215V73.884C65.5744 79.248 67.7468 85.891 77.2983 85.891C83.7836 85.891 87.4255 82.2917 87.4255 79.6953C87.4255 78.0005 85.9278 77.2597 85.193 76.2393C83.0312 73.2305 84.098 69.0546 84.098 69.0546H84.1369H84.1439Z" fill="#FF661C"/>
<path d="M99.8761 30.6221C99.2473 30.6221 98.7422 31.1218 98.7422 31.7368C98.7422 32.3553 99.2473 32.8585 99.8761 32.8585C100.498 32.8585 100.996 32.3553 100.996 31.7368C100.996 31.1183 100.498 30.6221 99.8761 30.6221Z" fill="#FEFEFE"/>
<path d="M103.806 27.3516C103.245 27.3516 102.789 27.8024 102.789 28.365C102.789 28.9241 103.245 29.3749 103.806 29.3749C104.368 29.3749 104.824 28.9206 104.824 28.365C104.824 27.8058 104.368 27.3516 103.806 27.3516Z" fill="#FEFEFE"/>
<path d="M105.641 23.5947C105.178 23.5947 104.797 23.9721 104.797 24.4299C104.797 24.8947 105.178 25.2686 105.641 25.2686C106.104 25.2686 106.489 24.8947 106.489 24.4299C106.489 23.9721 106.107 23.5947 105.641 23.5947Z" fill="#FEFEFE"/>
<path d="M73.3827 28.8958C74.0503 28.8958 74.5978 28.3577 74.5978 27.6867C74.5978 27.0193 74.0539 26.4741 73.3827 26.4741C72.7045 26.4741 72.1641 27.0158 72.1641 27.6867C72.1641 28.3577 72.7045 28.8958 73.3827 28.8958Z" fill="#FEFEFE"/>
<path d="M78.0663 58.1484C77.3952 58.1484 76.8477 58.6901 76.8477 59.3575C76.8477 60.018 77.3952 60.5666 78.0663 60.5666C78.7375 60.5666 79.2814 60.0215 79.2814 59.3575C79.2814 58.6901 78.7375 58.1484 78.0663 58.1484Z" fill="#FEFEFE"/>
<path d="M85.3124 59.3574C84.6448 59.3574 84.0938 59.8956 84.0938 60.5595C84.0938 61.227 84.6448 61.7686 85.3124 61.7686C85.9871 61.7686 86.5346 61.227 86.5346 60.5595C86.5346 59.8956 85.9871 59.3574 85.3124 59.3574Z" fill="#FEFEFE"/>
<path d="M79.0702 47.1475C78.3955 47.1475 77.8516 47.6926 77.8516 48.3566C77.8516 49.0275 78.3955 49.5691 79.0702 49.5691C79.7414 49.5691 80.2889 49.0275 80.2889 48.3566C80.2889 47.6926 79.7378 47.1475 79.0702 47.1475Z" fill="#FEFEFE"/>
<path d="M83.2198 38.9636C83.8909 38.9636 84.442 38.4289 84.442 37.7545C84.442 37.0905 83.8945 36.5454 83.2198 36.5454C82.5522 36.5454 82.0117 37.0871 82.0117 37.7545C82.0117 38.4289 82.5522 38.9636 83.2198 38.9636Z" fill="#FEFEFE"/>
<path d="M64.2304 34.0817C64.9015 34.0817 65.449 33.54 65.449 32.8761C65.449 32.2086 64.9015 31.667 64.2304 31.667C63.5592 31.667 63.0117 32.2086 63.0117 32.8761C63.0117 33.54 63.5557 34.0817 64.2304 34.0817Z" fill="#FEFEFE"/>
<path d="M71.046 55.667C70.3678 55.667 69.8203 56.2016 69.8203 56.8726C69.8203 57.54 70.3678 58.0817 71.046 58.0817C71.7172 58.0817 72.2612 57.54 72.2612 56.8726C72.2612 56.2016 71.7172 55.667 71.046 55.667Z" fill="#FEFEFE"/>
<path d="M67.6945 40.0363C68.355 40.0363 68.899 39.4946 68.899 38.8237C68.899 38.1632 68.355 37.6216 67.6945 37.6216C67.0233 37.6216 66.4688 38.1632 66.4688 38.8237C66.4688 39.4946 67.0198 40.0363 67.6945 40.0363Z" fill="#FEFEFE"/>
<path d="M59.9925 46.9136C59.3249 46.9136 58.7773 47.4552 58.7773 48.1227C58.7773 48.7866 59.3249 49.3283 59.9925 49.3283C60.6636 49.3283 61.2147 48.7866 61.2147 48.1227C61.2147 47.4552 60.6636 46.9136 59.9925 46.9136Z" fill="#FEFEFE"/>
<path d="M72.5831 45.6207C73.2542 45.6207 73.8017 45.0791 73.8017 44.4151C73.8017 43.7512 73.2577 43.2061 72.5831 43.2061C71.9154 43.2061 71.375 43.7512 71.375 44.4151C71.375 45.0791 71.919 45.6207 72.5831 45.6207Z" fill="#FEFEFE"/>
<path d="M53.3476 34.7876C52.6764 34.7876 52.1289 35.3327 52.1289 36.0002C52.1289 36.6641 52.6764 37.2093 53.3476 37.2093C54.0187 37.2093 54.5698 36.6676 54.5698 36.0002C54.5698 35.3327 54.0222 34.7876 53.3476 34.7876Z" fill="#FEFEFE"/>
<path d="M55.9928 41.0674C55.3217 41.0674 54.7812 41.609 54.7812 42.2765C54.7812 42.9404 55.3217 43.4821 55.9928 43.4821C56.664 43.4821 57.2115 42.9404 57.2115 42.2765C57.2115 41.6125 56.664 41.0674 55.9928 41.0674Z" fill="#FEFEFE"/>
<path d="M64.9143 51.5962C64.2432 51.5962 63.6992 52.1413 63.6992 52.8123C63.6992 53.4762 64.2432 54.0249 64.9143 54.0249C65.5855 54.0249 66.1365 53.4797 66.1365 52.8123C66.1365 52.1413 65.589 51.5962 64.9143 51.5962Z" fill="#FEFEFE"/>
<path d="M77.43 34.501C78.1011 34.501 78.6557 33.9628 78.6557 33.3024C78.6557 32.6349 78.1011 32.0933 77.43 32.0933C76.7588 32.0933 76.2148 32.6349 76.2148 33.3024C76.2148 33.9628 76.7588 34.501 77.43 34.501Z" fill="#FEFEFE"/>
<path d="M86.3835 49.4644C85.7123 49.4644 85.1719 50.0025 85.1719 50.67C85.1719 51.3374 85.7123 51.8791 86.3835 51.8791C87.0546 51.8791 87.5951 51.3374 87.5951 50.67C87.5951 49.999 87.0546 49.4644 86.3835 49.4644Z" fill="#FEFEFE"/>
<path d="M89.4335 39.603C88.7694 39.603 88.2148 40.1447 88.2148 40.8121C88.2148 41.4761 88.7659 42.0177 89.4335 42.0177C90.1046 42.0177 90.6522 41.4796 90.6522 40.8121C90.6522 40.1447 90.1046 39.603 89.4335 39.603Z" fill="#FEFEFE"/>
<path d="M88.6519 29.668C87.9807 29.668 87.4297 30.2096 87.4297 30.8806C87.4297 31.548 87.9772 32.0931 88.6519 32.0931C89.316 32.0931 89.8635 31.548 89.8635 30.8806C89.8635 30.2096 89.3195 29.668 88.6519 29.668Z" fill="#FEFEFE"/>
<path d="M94.4339 31.5273C93.7627 31.5273 93.2188 32.0655 93.2188 32.7329C93.2188 33.3969 93.7627 33.9385 94.4339 33.9385C95.1015 33.9385 95.6455 33.3969 95.6455 32.7329C95.6455 32.0655 95.0979 31.5273 94.4339 31.5273Z" fill="#FEFEFE"/>
<path d="M84.3152 25.9326C83.637 25.9326 83.0859 26.4743 83.0859 27.1417C83.0859 27.8022 83.637 28.3473 84.3152 28.3473C84.9863 28.3473 85.5268 27.8022 85.5268 27.1417C85.5268 26.4743 84.9863 25.9326 84.3152 25.9326Z" fill="#FEFEFE"/>
<path d="M81.914 21.3794C81.2428 21.3794 80.6953 21.9175 80.6953 22.585C80.6953 23.2524 81.2393 23.7941 81.914 23.7941C82.5851 23.7941 83.1326 23.2524 83.1326 22.585C83.1326 21.9175 82.5886 21.3794 81.914 21.3794Z" fill="#FEFEFE"/>
<path d="M86.9608 21.3794C86.2897 21.3794 85.7422 21.9175 85.7422 22.585C85.7422 23.2524 86.2897 23.7941 86.9608 23.7941C87.632 23.7941 88.176 23.2524 88.176 22.585C88.176 21.9175 87.632 21.3794 86.9608 21.3794Z" fill="#FEFEFE"/>
<path d="M81.2031 18.0734C81.2031 17.5143 81.6553 17.0635 82.2169 17.0635C82.7856 17.0635 83.2378 17.5178 83.2378 18.0734C83.2378 18.636 82.7856 19.0868 82.2169 19.0868C81.6553 19.0868 81.2031 18.636 81.2031 18.0734Z" fill="#FEFEFE"/>
<path d="M84.2305 14.4008C84.2305 13.9885 84.559 13.646 84.9935 13.646C85.4138 13.646 85.7494 13.9885 85.7494 14.4008C85.7494 14.8236 85.4138 15.1696 84.9935 15.1696C84.5625 15.1696 84.2305 14.8236 84.2305 14.4008Z" fill="#FEFEFE"/>
<path d="M88.1523 12.6679C88.1523 12.3114 88.4455 12.0039 88.82 12.0039C89.1979 12.0039 89.4982 12.3114 89.4982 12.6679C89.4982 13.0418 89.1979 13.3353 88.82 13.3353C88.4491 13.3353 88.1523 13.0418 88.1523 12.6679Z" fill="#FEFEFE"/>
<path d="M104.875 21.0019C104.875 20.6734 105.151 20.4009 105.486 20.4009C105.829 20.4009 106.104 20.6734 106.104 21.0019C106.104 21.3444 105.829 21.61 105.486 21.61C105.151 21.61 104.875 21.3444 104.875 21.0019Z" fill="#FEFEFE"/>
<path d="M104.004 33.0861C103.99 32.7262 104.276 32.4117 104.644 32.4012C105.008 32.3837 105.322 32.6633 105.336 33.0302C105.361 33.3971 105.068 33.7046 104.704 33.7186C104.34 33.7326 104.022 33.446 104.004 33.0861Z" fill="#FEFEFE"/>
<path d="M105.735 30.7516C105.717 30.3847 106.004 30.0772 106.367 30.0667C106.731 30.0492 107.042 30.3323 107.063 30.6957C107.074 31.0626 106.795 31.3701 106.427 31.3771C106.06 31.3981 105.749 31.115 105.739 30.7516H105.735Z" fill="#FEFEFE"/>
<path d="M102.185 35.396C102.164 35.0291 102.45 34.718 102.821 34.7111C103.181 34.6901 103.492 34.9731 103.513 35.3366C103.52 35.707 103.241 36.011 102.874 36.025C102.513 36.0425 102.199 35.7559 102.188 35.3995L102.185 35.396Z" fill="#FEFEFE"/>
<path d="M100.122 37.562C100.107 37.195 100.387 36.884 100.754 36.8735C101.125 36.8596 101.422 37.1391 101.446 37.5026C101.453 37.873 101.178 38.184 100.803 38.191C100.443 38.2049 100.132 37.9254 100.122 37.562Z" fill="#FEFEFE"/>
<path d="M107.309 28.4314C107.298 28.068 107.574 27.7604 107.945 27.743C108.312 27.7255 108.616 28.0051 108.63 28.379C108.644 28.7389 108.365 29.0534 107.998 29.0639C107.63 29.0814 107.319 28.7948 107.309 28.4314Z" fill="#FEFEFE"/>
<path d="M108.536 26.3903C108.518 26.0304 108.801 25.7193 109.168 25.7054C109.536 25.6879 109.839 25.9675 109.854 26.3344C109.878 26.7083 109.592 27.0088 109.221 27.0263C108.854 27.0368 108.547 26.7502 108.536 26.3868V26.3903Z" fill="#FEFEFE"/>
<path d="M32.5387 77.4519C32.5387 77.4519 28.0844 69.8129 31.1646 61.9713C34.5662 53.3015 44.3508 54.4372 44.3508 54.4372C42.7577 53.7278 41.0092 53.3644 39.183 53.4343C32.3903 53.6999 27.113 59.8537 27.4062 67.1851C27.5757 71.4309 29.568 75.1351 32.5387 77.4519Z" fill="#FEFEFE"/>
<path d="M16.0982 53.106C14.1837 51.2085 13.0039 48.5806 13.0039 45.6837C13.0039 39.8828 17.7408 35.4903 23.5797 35.1827C29.5918 34.8613 40.6339 36.6504 47.6668 35.7349C50.097 46.5189 60.8848 57.0023 69.3518 61.7723C59.2988 57.3343 49.6732 47.2213 41.2591 42.5876C32.4706 37.7547 23.661 37.0313 19.0301 41.2597C15.0421 44.8974 15.36 50.0553 16.0982 53.1095V53.106Z" fill="#FEFEFE"/>
<path d="M40.9824 63.9947C41.5228 67.1083 35.8711 68.0903 35.8711 68.0903C41.0107 68.9988 42.9287 66.2591 42.9287 66.2591L40.9824 63.9912V63.9947Z" fill="#FEFEFE"/>
<path d="M81.9042 65.6615L81.9077 65.623C81.9077 65.623 78.5732 70.3476 80.8657 78.9266C79.4739 80.2684 76.9307 81.3657 74.9102 81.9248C74.9102 81.9248 82.6672 82.9208 85.0904 78.8252C80.4065 75.2259 81.8088 66.2695 81.9077 65.6615H81.9042Z" fill="#FEFEFE"/>
<path d="M101.157 21.7883C100.832 23.56 98.8359 24.6818 96.6882 24.2869C94.5476 23.899 93.0711 22.1552 93.3996 20.387C93.7246 18.6223 95.7168 17.5006 97.8751 17.8955C100.012 18.2799 101.482 20.0341 101.16 21.7918L101.157 21.7883ZM97.3735 16.4907C94.3569 15.942 91.5381 17.5215 91.0824 20.0131C90.6267 22.5047 92.6967 24.9683 95.7204 25.5169C98.7476 26.0551 101.566 24.4826 102.019 21.9945C102.471 19.4959 100.401 17.0393 97.377 16.4907H97.3735Z" fill="#FEFEFE"/>
<path d="M97.1018 21.0157C97.2749 20.0372 98.384 19.4187 99.5674 19.6319C100.751 19.852 101.57 20.8165 101.39 21.788C101.206 22.7699 100.104 23.385 98.9139 23.1683C97.7306 22.9586 96.9111 21.9941 97.1018 21.0157Z" fill="#FEFEFE"/>
<path d="M90.7819 61.4121H90.7748H90.7819C92.6363 64.8367 86.6914 66.0982 86.6914 66.0982C90.8242 66.7936 93.1945 64.1518 93.1945 63.0615C92.3114 59.3573 91.3329 62.1704 90.7783 61.4121H90.7819Z" fill="#FEFEFE"/>
<path d="M103.214 19.2125C101.706 16.6126 98.8763 14.8409 95.6407 14.8409C92.6947 14.8409 90.0808 16.3086 88.5018 18.5241C88.0038 19.1251 87.1136 19.209 86.5025 18.7163C85.8985 18.2166 85.8173 17.3394 86.3083 16.7454C88.1592 14.6976 90.918 13.3662 93.9558 13.3662C98.1028 13.3662 101.67 15.7774 103.211 19.2125H103.214Z" fill="#FEFEFE"/>
<path d="M93.7647 37.0554C90.6421 36.961 86.6435 35.4479 82.9098 32.7047C79.7731 30.4019 77.41 27.6622 76.1454 25.1042C75.8875 24.6639 76.0394 24.0978 76.4774 23.8357C76.919 23.5771 77.5265 23.7099 77.7561 24.1677C79.1196 26.8654 81.1507 29.8567 84.1815 32.3203C87.3217 34.8818 90.7022 36.4928 93.7683 37.0554H93.7647Z" fill="#FEFEFE"/>
<path d="M89.6239 45.4983C83.9898 45.1489 77.5539 42.238 72.5945 37.1814C70.2631 34.7982 68.5146 32.2682 67.3172 29.7242C67.0593 29.2734 67.2253 28.7143 67.6775 28.4662C68.1296 28.2146 68.7266 28.3648 68.9491 28.8296C70.4044 31.9222 72.2271 35.1651 75.219 38.1354C79.5179 42.3952 84.7422 44.9252 89.6239 45.4948V45.4983Z" fill="#FEFEFE"/>
<path d="M58.026 32.8341C58.517 32.6664 59.0221 32.932 59.2093 33.4072C61.6148 39.3234 62.9041 41.7486 67.4856 46.571C73.6707 53.0812 82.6535 55.4295 87.6235 55.5273C83.4023 55.8978 72.989 53.9409 65.7689 46.4941C61.7031 42.3007 58.736 37.8697 57.4431 34.0048C57.2807 33.5226 57.5385 32.9949 58.0224 32.8307L58.026 32.8341Z" fill="#FEFEFE"/>
<path d="M91.0268 25.6672C92.2454 26.4639 94.0363 27.2467 96.4312 27.3306C101.482 27.4843 103.22 23.5006 103.429 21.9561C103.496 23.0883 101.981 28.5956 95.7707 28.6794C93.3793 28.7109 91.5072 28.1588 90.179 27.3446C89.7198 27.1069 89.5326 26.5478 89.7622 26.0865C89.9989 25.6288 90.5993 25.3841 91.0268 25.6637V25.6672Z" fill="#FEFEFE"/>
<path d="M137.56 38.1354H141.372C143.495 38.1354 145.031 37.7824 145.989 37.08C146.942 36.3776 147.419 35.2349 147.419 33.6554C147.419 32.1074 146.921 31.0136 145.929 30.3671C144.936 29.7276 143.244 29.4061 140.867 29.4061H137.56V38.1319V38.1354ZM150.637 33.6554C150.637 36.0456 149.902 37.8243 148.433 38.995C146.967 40.1691 144.717 40.7562 141.693 40.7562H134.441V16.501H149.147V19.1882H137.56V26.7538H141.238C144.399 26.7538 146.759 27.3024 148.309 28.3962C149.864 29.49 150.637 31.2442 150.637 33.6554Z" fill="#6E6F71"/>
<path d="M168.355 40.7528H154.516V16.4976H168.355V19.1848H157.635V26.7539H167.73V29.4062H157.635V38.0655H168.355V40.7528Z" fill="#6E6F71"/>
<path d="M211.597 30.5346L208.821 23.1857L207.634 19.5514C207.295 20.8793 206.938 22.0884 206.567 23.1857L203.755 30.5346H211.597ZM215.507 40.7525L212.53 33.2393H202.706L199.76 40.7525H196.609L206.281 16.3994H209.093L218.75 40.7525H215.511H215.507Z" fill="#6E6F71"/>
<path d="M225.256 28.6932H227.746C230.212 28.6932 231.996 28.3019 233.101 27.5226C234.207 26.7433 234.761 25.4923 234.761 23.766C234.761 22.2075 234.246 21.0368 233.218 20.261C232.193 19.4888 230.59 19.1009 228.41 19.1009H225.259V28.6897L225.256 28.6932ZM237.997 23.6332C237.997 26.1108 237.132 28.0118 235.401 29.3327C233.673 30.6537 231.24 31.3176 228.103 31.3176H225.256V40.7562H222.137V16.501H228.693C234.892 16.501 237.993 18.8807 237.993 23.6332H237.997Z" fill="#6E6F71"/>
<path d="M245.293 41.0848C244.018 41.0848 242.895 40.9205 241.923 40.5886V37.7021C242.951 38.1529 244.039 38.38 245.194 38.38C246.402 38.38 247.374 38.104 248.112 37.5519C248.854 36.9962 249.567 35.9933 250.256 34.5291L240.719 16.4976H244.138L251.217 29.9828C251.499 30.5035 251.743 31.0801 251.945 31.7091H252.082L252.217 31.3107L252.743 29.9513L258.674 16.4976H261.976L254.064 33.8512C253.128 35.9059 252.273 37.4086 251.507 38.3486C250.74 39.2886 249.86 39.9805 248.871 40.4208C247.882 40.8646 246.688 41.0848 245.29 41.0848H245.293Z" fill="#6E6F71"/>
<path d="M275.116 18.839C272.449 18.839 270.358 19.7092 268.832 21.4599C267.31 23.2072 266.543 25.5974 266.543 28.6271C266.543 31.7582 267.285 34.1729 268.762 35.8677C270.242 37.5695 272.347 38.4187 275.084 38.4187C276.847 38.4187 278.829 38.0937 281.029 37.4542V40.11C279.98 40.4839 278.97 40.7425 277.999 40.8823C277.027 41.022 275.911 41.0884 274.646 41.0884C270.998 41.0884 268.186 40.0017 266.218 37.8281C264.247 35.6545 263.262 32.5759 263.262 28.5957C263.262 26.0971 263.732 23.906 264.675 22.026C265.614 20.146 266.992 18.6993 268.793 17.6824C270.595 16.6655 272.714 16.1553 275.155 16.1553C277.773 16.1553 280.054 16.6305 281.997 17.581L280.743 20.1704C278.769 19.2828 276.893 18.8425 275.12 18.8425L275.116 18.839Z" fill="#6E6F71"/>
<path d="M304.638 40.7528H300.879L289.682 28.4592V40.7528H286.562V16.4976H289.682V28.2425L300.607 16.4976H304.147L293.391 28.2775L304.638 40.7528Z" fill="#6E6F71"/>
<path d="M312.31 40.7528H309.191V16.4976H312.31V40.7528Z" fill="#6E6F71"/>
<path d="M154.675 77.0886H149.454V66.5457H139.676V77.0886H134.441V52.6621H139.676V62.2335H149.454V52.6621H154.675V77.0886Z" fill="#6E6F71"/>
<path d="M173.721 66.9303C172.068 61.6606 171.135 58.6833 170.927 57.9914C170.722 57.303 170.57 56.7543 170.482 56.356C170.107 57.7817 169.044 61.3042 167.288 66.9303H173.721ZM176.759 77.0888L174.968 71.2774H165.967L164.176 77.0888H158.535L167.249 52.5645H173.654L182.4 77.0888H176.759Z" fill="#6E6F71"/>
<path d="M191.501 64.1555H193.221C194.832 64.1555 196.036 63.841 196.835 63.212C197.637 62.583 198.036 61.6674 198.036 60.4618C198.036 59.2492 197.7 58.3511 197.029 57.7745C196.358 57.1945 195.309 56.9044 193.878 56.9044H191.497V64.1555H191.501ZM203.324 60.2801C203.324 62.908 202.494 64.9208 200.833 66.3116C199.173 67.7059 196.81 68.4013 193.751 68.4013H191.504V77.0886H186.27V52.6621H194.154C197.149 52.6621 199.428 53.3016 200.989 54.5736C202.547 55.8491 203.327 57.7501 203.327 60.2801H203.324Z" fill="#6E6F71"/>
<path d="M225.213 64.8435C225.213 59.3397 223.136 56.5895 218.982 56.5895C214.125 56.5895 212.684 60.2797 212.684 64.8435C212.684 69.4108 214.125 73.0975 218.982 73.0975C223.136 73.0975 225.213 70.3473 225.213 64.8435ZM207.191 64.8435C207.191 60.7794 208.209 57.6414 210.24 55.4958C212.271 53.3536 215.189 52.2773 218.979 52.2773C222.773 52.2773 225.676 53.3571 227.686 55.5167C229.696 57.6798 230.699 60.7864 230.699 64.84C230.699 68.8936 229.696 72.0002 227.686 74.1633C225.676 76.3264 222.773 77.4027 218.979 77.4027C215.185 77.4027 212.271 76.3299 210.24 74.1878C208.205 72.0457 207.191 68.9041 207.191 64.84V64.8435Z" fill="#6E6F71"/>
<path d="M282.682 77.0886H277.462V66.5457H267.684V77.0886H262.449V52.6621H267.684V62.2335H277.462V52.6621H282.682V77.0886Z" fill="#6E6F71"/>
<path d="M312.31 77.0886H307.093V52.6656H312.31V77.0886ZM292.434 72.8463H293.801C295.521 72.8463 296.782 72.5632 297.584 72.0041C298.382 71.4415 298.785 70.5888 298.785 69.4531C298.785 68.3174 298.397 67.5067 297.627 67.014C296.856 66.5247 295.5 66.2801 293.568 66.2801H292.434V72.8463ZM304.123 69.4531C304.123 71.9936 303.268 73.9016 301.565 75.1736C299.859 76.4526 297.333 77.0851 293.992 77.0851H287.234V52.6621H292.469V62.0343H294.158C297.323 62.0343 299.774 62.6843 301.516 63.9808C303.257 65.2772 304.126 67.1013 304.126 69.4496L304.123 69.4531Z" fill="#6E6F71"/>
<path d="M334.317 72.8424H336.076C337.842 72.8424 339.139 72.5628 339.958 72.0002C340.781 71.4376 341.194 70.5849 341.194 69.4492C341.194 68.3275 340.778 67.5168 339.944 67.0205C339.11 66.5278 337.676 66.2762 335.652 66.2762H334.317V72.8424ZM334.317 62.0339H336.376C339.598 62.0339 342.088 62.6769 343.844 63.9699C345.596 65.2628 346.475 67.0904 346.475 69.4492C346.475 74.5407 343.077 77.0847 336.274 77.0847H329.082V52.6582H344.684V56.9355H334.313V62.0339H334.317Z" fill="#6E6F71"/>
<path d="M364.377 66.9303C362.724 61.6606 361.791 58.6833 361.579 57.9914C361.374 57.303 361.226 56.7543 361.134 56.356C360.76 57.7817 359.697 61.3042 357.941 66.9303H364.373H364.377ZM367.415 77.0888L365.624 71.2774H356.623L354.833 77.0888H349.191L357.906 52.5645H364.31L373.056 77.0888H367.415Z" fill="#6E6F71"/>
<path d="M396.007 77.0886H390.79V66.5457H381.012V77.0886H375.777V52.6621H381.012V62.2335H390.79V52.6621H396.007V77.0886Z" fill="#6E6F71"/>
<path d="M420.002 77.0886H414.061L405.11 64.7111V77.0886H399.875V52.6621H405.11V64.491L413.962 52.6621H419.533L410.532 64.3896L420.002 77.0886Z" fill="#6E6F71"/>
<path d="M177.924 16.4976C177.92 19.7579 177.885 22.6024 177.814 25.1918C177.744 27.8442 177.567 30.161 177.291 32.0865C177.009 34.0154 176.564 35.539 175.963 36.6048C175.349 37.7021 174.483 38.2612 173.392 38.2612C172.922 38.2612 172.48 38.2053 172.074 38.0935V40.8192C172.286 40.9101 172.569 40.9869 172.901 41.0359C173.272 41.0918 173.639 41.1197 173.989 41.1197C175.059 41.1197 175.977 40.8541 176.723 40.3195C177.468 39.7883 178.107 39.0195 178.616 38.0446C179.125 37.0626 179.531 35.8745 179.831 34.5186C180.128 33.1663 180.358 31.6497 180.513 30.0177C180.658 28.4312 180.767 26.6805 180.827 24.8109C180.884 23.0497 180.926 21.1278 180.951 19.101V18.9856H190.301V40.7808H193.212V16.5011H177.931L177.924 16.4976Z" fill="#6E6F71"/>
<path d="M251.062 71.9866V56.9464H243.627C243.637 62.1811 243.553 67.4333 240.978 71.9866H251.062ZM233.422 71.9866H235.435C239.42 66.6156 238.682 59.1129 238.724 52.6621H255.969V71.9866H258.586V80.6809H253.288V76.3687H238.473V80.6809H233.422V71.9866Z" fill="#6E6F71"/>
</g>
<defs>
<clipPath id="clip0_400_162">
<rect width="420" height="97" fill="white"/>
</clipPath>
</defs>
</svg>
