<svg width="46" height="58" viewBox="0 0 46 58" fill="none" xmlns="http://www.w3.org/2000/svg">
<path d="M43.7997 34.386L22.9843 54.948L2.16891 34.386C1.67297 33.9128 0.886667 33.9128 0.390728 34.386C-0.11769 34.871 -0.131769 35.6714 0.359211 36.1736L22.0794 57.6296C22.3194 57.8666 22.6448 58 22.9843 58C23.3238 58 23.6492 57.8666 23.8891 57.6296L45.6094 36.1736C45.6201 36.1635 45.6305 36.1531 45.6407 36.1427C46.1317 35.6404 46.1178 34.8401 45.6094 34.355C45.1009 33.8698 44.2908 33.8837 43.7997 34.386Z" fill="#7798B5" fill-opacity="0.8"/>
<path d="M43.7997 17.386L22.9843 37.948L2.16891 17.386C1.67297 16.9128 0.886667 16.9128 0.390728 17.386C-0.11769 17.871 -0.131769 18.6714 0.359211 19.1736L22.0794 40.6296C22.3194 40.8666 22.6448 41 22.9843 41C23.3238 41 23.6492 40.8666 23.8891 40.6296L45.6094 19.1736C45.6201 19.1635 45.6305 19.1531 45.6407 19.1427C46.1317 18.6404 46.1178 17.8401 45.6094 17.355C45.1009 16.8698 44.2908 16.8837 43.7997 17.386Z" fill="#7798B5" fill-opacity="0.6"/>
<path d="M43.7997 0.385952L22.9843 20.948L2.16891 0.385952C1.67297 -0.0872015 0.886667 -0.0872015 0.390728 0.385952C-0.11769 0.870958 -0.131769 1.6714 0.359211 2.17363L22.0794 23.6296C22.3194 23.8666 22.6448 24 22.9843 24C23.3238 24 23.6492 23.8666 23.8891 23.6296L45.6094 2.17363C45.6201 2.16352 45.6305 2.15309 45.6407 2.14266C46.1317 1.64042 46.1178 0.840141 45.6094 0.354977C45.1009 -0.130187 44.2908 -0.11628 43.7997 0.385952Z" fill="#7798B5" fill-opacity="0.4"/>
</svg>
