<svg width="60" height="60" viewBox="0 0 60 60" fill="none" xmlns="http://www.w3.org/2000/svg">
<path d="M59.3453 43.19L53.7418 41.1571C53.2255 40.9708 52.6558 41.2369 52.4689 41.7515L52.1287 42.6817L45.6372 40.3222C45.4741 40.2613 45.2975 40.2463 45.1262 40.2777L31.6199 42.6551C30.3955 42.8722 29.3439 43.6471 28.7752 44.749L22.5796 42.4964C21.5902 42.1336 20.4954 42.182 19.5418 42.6304C18.33 43.1939 17.4832 44.3248 17.2857 45.6429C17.0382 47.5506 18.1718 49.3688 19.998 49.9923L40.4064 57.3962C40.5151 57.4363 40.6306 57.4571 40.7465 57.4567C40.8548 57.4567 40.962 57.4388 41.0644 57.4044L46.764 55.4866L47.3706 55.7062L47.0304 56.6373C46.8436 57.1519 47.1105 57.7203 47.6268 57.9065L53.2313 59.939C53.3395 59.9791 53.4545 59.9999 53.57 59.9994C53.9879 59.9999 54.3615 59.7392 54.5042 59.3479L59.9427 44.453C60.1257 43.9398 59.8588 43.3758 59.3453 43.19ZM46.4578 53.501L40.7582 55.4188L20.6773 48.1329C19.7485 47.8248 19.156 46.9174 19.2501 45.9457C19.3341 45.3536 19.6816 44.8312 20.1959 44.5231C20.7103 44.2155 21.3364 44.156 21.8998 44.3611L28.3481 46.6997C28.3515 46.8826 28.3661 47.0649 28.3928 47.2453C28.7825 49.3939 30.8362 50.8286 32.9952 50.46L44.1842 48.4938L43.8382 46.5421L32.6545 48.5088C31.5777 48.6911 30.5528 47.9791 30.3519 46.9087C30.3106 46.6828 30.3121 46.4506 30.3567 46.2252C30.364 46.1923 30.3698 46.1594 30.3737 46.1261C30.3868 46.0414 30.4096 45.9587 30.4421 45.8794C30.6862 45.2143 31.2666 44.7292 31.9659 44.6044L45.2077 42.2768L51.4494 44.54L48.05 53.8517L47.1158 53.514C46.9042 53.4357 46.6723 53.4308 46.4578 53.501ZM52.9717 57.742L49.236 56.3867L53.9942 43.3545L57.7303 44.7093L52.9717 57.742Z" fill="#E31F26"/>
<path d="M23.1497 15.9794C23.4705 17.1499 24.0621 18.2296 24.8768 19.1307C24.8618 19.21 24.8511 19.2898 24.8463 19.3706V24.7653C24.8463 26.4064 26.1808 27.7371 27.8278 27.7371V37.6432C27.8254 38.0205 28.0389 38.3663 28.3772 38.5346L30.3649 39.5252C30.6449 39.6645 30.9739 39.6645 31.2534 39.5252L33.2411 38.5346C33.5798 38.3663 33.7929 38.0205 33.7909 37.6432V27.7371C35.4375 27.7371 36.7725 26.4064 36.7725 24.7653V19.3706C36.7672 19.284 36.756 19.1979 36.7395 19.1128C37.4034 18.3848 37.9207 17.5364 38.2633 16.6135C39.7307 16.8592 41.1997 16.1874 41.9703 14.9187C42.9151 13.3607 42.6565 11.3587 41.3462 10.0904L33.2581 2.03058C31.9566 0.726535 30.1853 -0.00481312 28.3393 2.3841e-05H17.8893C17.7544 -0.000459855 17.6214 0.0271108 17.4977 0.0803174L10.7334 2.97185H9.93851V0.990633C9.93851 0.443573 9.49351 2.3841e-05 8.94466 2.3841e-05H0.993851C0.445001 2.3841e-05 0 0.443573 0 0.990633V16.8404C0 17.3874 0.445001 17.831 0.993851 17.831H8.94466C9.49351 17.831 9.93851 17.3874 9.93851 16.8404V14.8592H10.0836C10.795 17.2365 13.9911 18.8216 16.8955 18.8216C19.3049 18.8709 21.6066 17.8252 23.1497 15.9794ZM7.95081 15.8498H1.9877V1.98124H7.95081V15.8498ZM31.8032 37.0308L30.8094 37.5261L29.8155 37.0308V27.7371H31.8032V37.0308ZM34.7848 24.7653C34.7848 25.3123 34.3398 25.7559 33.7909 25.7559H27.8278C27.279 25.7559 26.834 25.3123 26.834 24.7653V20.7216C27.5022 21.1095 28.2248 21.3968 28.9775 21.5733C29.321 22.4068 30.1824 22.9069 31.0787 22.7937C31.9755 22.681 32.685 21.983 32.8097 21.0906C32.9344 20.1987 32.4433 19.3338 31.612 18.9807C30.7803 18.6281 29.8146 18.8743 29.256 19.5825C28.6955 19.4359 28.1593 19.2081 27.6657 18.9058C28.6237 18.3268 29.6962 17.9601 30.8094 17.831C32.2361 18.0308 33.5968 18.558 34.7848 19.3706V24.7653ZM35.5248 17.5069C34.1039 16.5961 32.4894 16.0287 30.8094 15.8498C29.1323 16.0278 27.5202 16.5942 26.1012 17.503C25.4951 16.734 25.0938 15.8246 24.9346 14.8592H29.8155C31.2714 14.8737 32.6127 14.0736 33.2877 12.788L36.0708 15.5615C36.1819 15.665 36.2993 15.7613 36.4226 15.8498C36.2178 16.4481 35.9145 17.0082 35.5248 17.5069ZM33.7439 10.4401C33.6512 9.62944 33.3066 8.86762 32.7592 8.26058C35.007 9.03885 36.576 11.0742 36.7506 13.4395L33.7439 10.4401ZM21.8647 13.8686C21.8647 15.3685 19.4029 16.8404 16.8955 16.8404C14.388 16.8404 11.9262 15.3685 11.9262 13.8686C11.9262 13.3215 11.4812 12.8779 10.9324 12.8779H9.93851V4.95307H10.9324C11.0668 4.95355 11.2002 4.92598 11.324 4.87278L18.0878 1.98124H28.3345C29.6544 1.97641 30.922 2.4988 31.8527 3.43136L39.9389 11.4912C40.5926 12.0997 40.7396 13.0767 40.2937 13.8497C39.9617 14.3735 39.3813 14.6879 38.7602 14.6807C38.7442 14.6807 38.7291 14.6807 38.7131 14.6807C38.7432 14.4113 38.7587 14.1399 38.7602 13.8686C38.7553 9.49401 35.1982 5.94852 30.8094 5.94368C29.4739 5.94561 28.1607 6.28662 26.9936 6.93429H18.8832V8.91551H29.8155C30.9132 8.91551 31.8032 9.80261 31.8032 10.8967C31.8032 11.9908 30.9132 12.8779 29.8155 12.8779H22.8586C22.3097 12.8779 21.8647 13.3215 21.8647 13.8686Z" fill="#E31F26"/>
</svg>
