<svg width="49" height="60" viewBox="0 0 49 60" fill="none" xmlns="http://www.w3.org/2000/svg">
<path d="M24.221 60C24.0745 60 23.9304 59.9626 23.8025 59.8911C8.89766 51.5474 2.6597e-07 38.1353 2.6597e-07 24.0038V10.5463C-9.27872e-05 10.4281 0.024232 10.3113 0.0714484 10.203C0.118665 10.0947 0.187754 9.99727 0.274381 9.91693C0.360788 9.83605 0.463201 9.77418 0.575005 9.73534C0.686809 9.6965 0.805518 9.68154 0.923464 9.69143C10.8698 10.4631 18.2626 7.39606 23.5333 0.323896C23.6166 0.222616 23.7214 0.141047 23.84 0.0850452C23.9586 0.0290437 24.0881 0 24.2192 0C24.3504 0 24.4799 0.0290437 24.5985 0.0850452C24.7171 0.141047 24.8219 0.222616 24.9052 0.323896C30.1802 7.39606 37.5833 10.4614 47.5185 9.69143C47.6365 9.68231 47.7551 9.69773 47.8669 9.73672C47.9787 9.77571 48.0812 9.83743 48.1679 9.91797C48.2547 9.99852 48.3238 10.0962 48.371 10.2047C48.4181 10.3133 48.4423 10.4305 48.4419 10.5489V24.0038C48.3737 31.198 46.1779 38.2111 42.1312 44.1597C37.6196 50.7065 31.6265 56.0961 24.6394 59.8902C24.5116 59.962 24.3675 59.9998 24.221 60ZM1.71488 11.4629V24.0038C1.71488 37.3704 10.1178 50.1077 24.221 58.1574C30.7963 54.5159 36.4379 49.3997 40.7027 43.2105C44.5623 37.5431 46.6584 30.8603 46.727 24.0038V11.4629C37.038 12.0031 29.6494 8.97632 24.221 2.23684C18.7942 8.97461 11.4134 12.0031 1.71488 11.4629Z" fill="#E31F26"/>
<path d="M24.2209 54.0108C24.0581 54.0107 23.8987 53.9643 23.7613 53.877C11.9286 46.3538 5.14453 35.4652 5.14453 24.0038V15.7561C5.1442 15.5366 5.22804 15.3254 5.37877 15.1659C5.52951 15.0063 5.73568 14.9107 5.95481 14.8986C12.498 14.6913 18.7601 12.1908 23.6464 7.83419C23.8039 7.69199 24.0086 7.61328 24.2209 7.61328C24.4331 7.61328 24.6378 7.69199 24.7953 7.83419C29.681 12.1902 35.9421 14.6907 42.4843 14.8986C42.7035 14.9107 42.9096 15.0063 43.0604 15.1659C43.2111 15.3254 43.2949 15.5366 43.2946 15.7561V24.0021C43.2252 30.1829 41.3287 36.2051 37.8439 41.3104C34.3715 46.3638 29.8894 50.6427 24.6804 53.877C24.5431 53.9643 24.3836 54.0107 24.2209 54.0108ZM6.85941 16.5612V24.0038C6.85941 34.7218 13.1787 44.9451 24.2209 52.1338C29.037 49.0714 33.1855 45.0684 36.4179 40.3646C39.7156 35.5405 41.5124 29.8486 41.5823 24.0055V16.5629C35.1942 16.1919 29.1002 13.7523 24.2209 9.61252C19.3413 13.7517 13.2473 16.1907 6.85941 16.5612Z" fill="#E31F26"/>
<path d="M20.5993 36.0881C20.3719 36.088 20.1538 35.9977 19.9931 35.8369L15.0405 30.8843C14.8843 30.7226 14.7979 30.506 14.7998 30.2812C14.8018 30.0563 14.892 29.8413 15.0509 29.6823C15.2099 29.5233 15.425 29.4332 15.6498 29.4312C15.8746 29.4292 16.0912 29.5157 16.2529 29.6719L20.5993 34.0199L32.1893 22.4282C32.3506 22.2674 32.5692 22.1773 32.797 22.1777C33.0248 22.1781 33.2431 22.269 33.4039 22.4304C33.5646 22.5917 33.6547 22.8103 33.6543 23.0381C33.6539 23.2659 33.5631 23.4841 33.4017 23.6449L21.2055 35.8369C21.0447 35.9977 20.8267 36.088 20.5993 36.0881Z" fill="#E31F26"/>
</svg>
