<svg width="66" height="60" viewBox="0 0 66 60" fill="none" xmlns="http://www.w3.org/2000/svg">
<path d="M50.8749 46.3633C47.0855 46.3633 44 49.4233 44 53.1814C44 56.9396 47.0855 59.9996 50.8749 59.9996C54.6643 59.9996 57.7498 56.9397 57.7498 53.1816C57.7498 49.4234 54.6643 46.3633 50.8749 46.3633ZM50.8749 57.2725C48.6006 57.2725 46.7499 55.4371 46.7499 53.1816C46.7499 50.9261 48.6006 49.0906 50.8749 49.0906C53.1492 49.0906 54.9999 50.9261 54.9999 53.1816C54.9999 55.4369 53.149 57.2725 50.8749 57.2725Z" fill="#E31F26"/>
<path d="M23.3749 46.3633C19.5855 46.3633 16.5 49.4233 16.5 53.1814C16.5 56.9396 19.5855 59.9996 23.3749 59.9996C27.1643 59.9996 30.2498 56.9396 30.2498 53.1814C30.2498 49.4233 27.1645 46.3633 23.3749 46.3633ZM23.3749 57.2725C21.1006 57.2725 19.2499 55.4371 19.2499 53.1816C19.2499 50.9261 21.1006 49.0906 23.3749 49.0906C25.6492 49.0906 27.4999 50.9261 27.4999 53.1816C27.4999 55.4369 25.6492 57.2725 23.3749 57.2725Z" fill="#E31F26"/>
<path d="M59.1246 40.9092H24.637C21.3727 40.9092 18.5376 38.6046 17.8968 35.4274L10.9724 1.09637C10.8431 0.458183 10.2794 0 9.62497 0H1.37503C0.616038 0 0 0.610825 0 1.36355C0 2.11628 0.616038 2.72724 1.37503 2.72724H8.49743L15.1991 35.9646C16.0956 40.41 20.0666 43.6364 24.637 43.6364H59.1245C59.8834 43.6364 60.4995 43.0255 60.4995 42.2728C60.4995 41.52 59.8836 40.9092 59.1246 40.9092Z" fill="#E31F26"/>
<path d="M65.6641 8.65069C65.4028 8.35346 65.0233 8.18164 64.6246 8.18164H12.375C11.616 8.18164 11 8.79259 11 9.54532C11 10.2981 11.616 10.9089 12.375 10.9089H63.0379L60.8159 26.3699C60.7279 26.9808 60.2357 27.4581 59.6197 27.5317L16.3377 32.7353C15.5814 32.828 15.0452 33.5071 15.1359 34.2545C15.2211 34.9473 15.8124 35.4545 16.4999 35.4545C16.5549 35.4545 16.6098 35.4518 16.6649 35.4464L59.9467 30.24C61.7947 30.0164 63.2688 28.5846 63.5328 26.7572L65.9857 9.73632C66.0436 9.34615 65.9254 8.94792 65.6641 8.65069Z" fill="#E31F26"/>
</svg>
