<svg width="226" height="40" viewBox="0 0 226 40" fill="none" xmlns="http://www.w3.org/2000/svg">
<path fill-rule="evenodd" clip-rule="evenodd" d="M144 40C155.046 40 164 31.0457 164 20C164 8.9543 155.046 0 144 0C132.954 0 124 8.9543 124 20C124 31.0457 132.954 40 144 40ZM154.936 26.8942C155.682 25.5768 156 23.4525 156 19.9968C156 16.555 155.685 14.443 154.931 13.0903C154.176 11.6855 153.281 11.2397 151.504 11.1326C150.29 11.0478 147.275 11 144.003 11C140.724 11 137.707 11.0478 136.485 11.1333C134.718 11.2399 133.822 11.6868 133.06 13.0954C132.318 14.4435 132 16.5658 132 20.0094C132 23.4335 132.319 25.5665 133.067 26.9102C133.819 28.3007 134.7 28.7422 136.482 28.8712C137.763 28.9485 140.95 29 144.003 29C147.049 29 150.234 28.9485 151.504 28.8721C153.302 28.7422 154.183 28.3 154.936 26.8942ZM151.366 13.3782C152.478 13.4451 152.684 13.5482 153.036 14.2058C153.549 15.122 153.818 16.9149 153.818 20.0094C153.818 23.0806 153.548 24.8834 153.039 25.7836C152.685 26.4433 152.48 26.546 151.364 26.6268C150.162 26.699 147.008 26.75 144.003 26.75C140.991 26.75 137.835 26.699 136.622 26.6259C135.519 26.546 135.312 26.4419 134.966 25.8025C134.453 24.8808 134.182 23.0679 134.182 19.9968C134.182 16.9276 134.452 15.1247 134.962 14.1988C135.313 13.5496 135.522 13.4452 136.622 13.3788C137.787 13.2974 140.776 13.25 144.003 13.25C147.223 13.25 150.21 13.2974 151.366 13.3782ZM147.273 20L141.818 16.625V23.375L147.273 20Z" fill="white"/>
<path d="M206 0C194.954 0 186 8.95427 186 20C186 31.0457 194.954 40 206 40C217.046 40 226 31.0457 226 20C226 8.95427 217.046 0 206 0ZM213.63 10.1852L210.864 10.1864C208.695 10.1864 208.275 11.2172 208.275 12.7296V16.0647H213.448L213.446 21.2882H208.276V34.693H202.88V21.2882H198.37V16.0647H202.88V12.2124C202.88 7.74179 205.612 5.30701 209.599 5.30701L213.63 5.31315V10.1852H213.63Z" fill="white"/>
<path d="M85.8281 20C85.8281 22.1143 84.1143 23.8281 82 23.8281C79.8857 23.8281 78.1719 22.1143 78.1719 20C78.1719 17.8857 79.8857 16.1719 82 16.1719C84.1143 16.1719 85.8281 17.8857 85.8281 20Z" fill="white"/>
<path d="M90.9529 13.2259C90.7689 12.7272 90.4753 12.2759 90.0938 11.9054C89.7233 11.5239 89.2723 11.2303 88.7733 11.0463C88.3687 10.8892 87.7607 10.7021 86.6411 10.6511C85.4298 10.5959 85.0667 10.584 82.0002 10.584C78.9335 10.584 78.5704 10.5956 77.3594 10.6508C76.2397 10.7021 75.6315 10.8892 75.2272 11.0463C74.7282 11.2303 74.2769 11.5239 73.9067 11.9054C73.5252 12.2759 73.2316 12.7269 73.0473 13.2259C72.8901 13.6306 72.7031 14.2388 72.6521 15.3585C72.5969 16.5694 72.585 16.9326 72.585 19.9993C72.585 23.0657 72.5969 23.4288 72.6521 24.6401C72.7031 25.7598 72.8901 26.3677 73.0473 26.7723C73.2316 27.2713 73.5249 27.7223 73.9064 28.0928C74.2769 28.4743 74.7279 28.7679 75.2269 28.9519C75.6315 29.1094 76.2397 29.2964 77.3594 29.3474C78.5704 29.4026 78.9332 29.4142 81.9999 29.4142C85.067 29.4142 85.4301 29.4026 86.6407 29.3474C87.7604 29.2964 88.3687 29.1094 88.7733 28.9519C89.7749 28.5655 90.5665 27.7739 90.9529 26.7723C91.11 26.3677 91.2971 25.7598 91.3484 24.6401C91.4036 23.4288 91.4152 23.0657 91.4152 19.9993C91.4152 16.9326 91.4036 16.5694 91.3484 15.3585C91.2974 14.2388 91.1104 13.6306 90.9529 13.2259ZM82.0002 25.8962C78.7431 25.8962 76.1027 23.2561 76.1027 19.999C76.1027 16.7418 78.7431 14.1017 82.0002 14.1017C85.2571 14.1017 87.8975 16.7418 87.8975 19.999C87.8975 23.2561 85.2571 25.8962 82.0002 25.8962ZM88.1306 15.2468C87.3695 15.2468 86.7524 14.6297 86.7524 13.8686C86.7524 13.1075 87.3695 12.4904 88.1306 12.4904C88.8917 12.4904 89.5088 13.1075 89.5088 13.8686C89.5085 14.6297 88.8917 15.2468 88.1306 15.2468Z" fill="white"/>
<path d="M82 0C70.956 0 62 8.95599 62 20C62 31.044 70.956 40 82 40C93.044 40 102 31.044 102 20C102 8.95599 93.044 0 82 0ZM93.4151 24.7348C93.3596 25.9573 93.1652 26.792 92.8813 27.5226C92.2847 29.0652 91.0652 30.2847 89.5226 30.8813C88.7923 31.1652 87.9573 31.3593 86.7351 31.4151C85.5104 31.4709 85.1192 31.4844 82.0003 31.4844C78.8811 31.4844 78.4902 31.4709 77.2652 31.4151C76.043 31.3593 75.208 31.1652 74.4777 30.8813C73.7111 30.593 73.0172 30.141 72.4434 29.5566C71.8593 28.9832 71.4073 28.2889 71.119 27.5226C70.8351 26.7923 70.6407 25.9573 70.5852 24.7351C70.5287 23.5101 70.5156 23.1189 70.5156 20C70.5156 16.8811 70.5287 16.4899 70.5849 15.2652C70.6404 14.0427 70.8345 13.208 71.1183 12.4774C71.4067 11.7111 71.859 11.0168 72.4434 10.4434C73.0168 9.85901 73.7111 9.40704 74.4774 9.11865C75.208 8.83484 76.0427 8.64075 77.2652 8.5849C78.4899 8.52905 78.8811 8.51562 82 8.51562C85.1189 8.51562 85.5101 8.52905 86.7348 8.58521C87.9573 8.64075 88.792 8.83484 89.5226 9.11835C90.2889 9.40674 90.9832 9.85901 91.5569 10.4434C92.141 11.0172 92.5933 11.7111 92.8813 12.4774C93.1655 13.208 93.3596 14.0427 93.4154 15.2652C93.4713 16.4899 93.4844 16.8811 93.4844 20C93.4844 23.1189 93.4713 23.5101 93.4151 24.7348Z" fill="white"/>
<path fill-rule="evenodd" clip-rule="evenodd" d="M20 40C31.0457 40 40 31.0457 40 20C40 8.9543 31.0457 0 20 0C8.9543 0 0 8.9543 0 20C0 31.0457 8.9543 40 20 40ZM31.7666 25.4513C31.7751 25.4673 31.7815 25.4792 31.7861 25.4871C32.5811 26.8352 30.904 26.941 30.904 26.941L27.6983 26.987C27.6983 26.987 27.0097 27.1266 26.1037 26.4901C25.6299 26.1573 25.1666 25.6143 24.7252 25.0969C24.05 24.3055 23.4259 23.5739 22.8934 23.7464C21.9994 24.0363 22.0279 26.004 22.0279 26.004C22.0279 26.004 22.0354 26.4242 21.8314 26.6481C21.6108 26.8919 21.1773 26.941 21.1773 26.941H19.7432C19.7432 26.941 16.578 27.1358 13.7893 24.1682C10.75 20.9306 8.06484 14.5092 8.06484 14.5092C8.06484 14.5092 7.91033 14.089 8.07834 13.885C8.26735 13.6565 8.78189 13.6412 8.78189 13.6412L12.2111 13.6197C12.2111 13.6197 12.5352 13.6749 12.7662 13.8482C12.9567 13.9909 13.0632 14.2577 13.0632 14.2577C13.0632 14.2577 13.6182 15.6917 14.3518 16.9876C15.7844 19.5197 16.452 20.0733 16.9395 19.8019C17.649 19.4062 17.436 16.2239 17.436 16.2239C17.436 16.2239 17.4495 15.0675 17.079 14.5537C16.7925 14.155 16.2524 14.0384 16.0139 14.0062C15.8204 13.9801 16.1369 13.5216 16.548 13.3161C17.1645 13.0078 18.2551 12.9894 19.5422 13.0032C20.5458 13.0139 20.8338 13.0783 21.2268 13.175C22.1372 13.3994 22.1089 14.1196 22.0478 15.6739C22.0295 16.1378 22.0084 16.6759 22.0084 17.2974C22.0084 17.4376 22.0043 17.5872 22.0002 17.741C21.9788 18.5363 21.9543 19.447 22.4659 19.785C22.7284 19.9583 23.372 19.8111 24.9786 17.0214C25.7406 15.6994 26.3122 14.1442 26.3122 14.1442C26.3122 14.1442 26.4367 13.8682 26.6302 13.7486C26.8297 13.6274 27.0967 13.6642 27.0967 13.6642L30.703 13.6427C30.703 13.6427 31.7876 13.5108 31.9631 14.0108C32.1476 14.5353 31.5581 15.7622 30.0835 17.7713C28.6815 19.6815 28.0008 20.3818 28.0664 21.0032C28.1141 21.455 28.5562 21.8651 29.4024 22.6683C31.1849 24.3596 31.6565 25.2448 31.7666 25.4513Z" fill="white"/>
</svg>
