<svg width="53" height="60" viewBox="0 0 53 60" fill="none" xmlns="http://www.w3.org/2000/svg">
<path d="M27.1275 32.7452C27.0165 32.7212 26.9026 32.7168 26.7901 32.7337C25.6632 32.6025 24.8131 31.6491 24.8112 30.5149C24.8112 29.9714 24.3706 29.5308 23.827 29.5308C23.2835 29.5308 22.8429 29.9714 22.8429 30.5149C22.8458 32.4088 24.1125 34.0677 25.9386 34.5689V35.5531C25.9386 36.0966 26.3793 36.5372 26.9228 36.5372C27.4663 36.5372 27.9069 36.0966 27.9069 35.5531V34.6285C30.0147 34.1873 31.4472 32.2243 31.2257 30.0824C31.0036 27.9406 29.1992 26.313 27.0458 26.3125C25.8117 26.3125 24.8112 25.312 24.8112 24.0779C24.8112 22.8439 25.8117 21.8434 27.0458 21.8434C28.2799 21.8434 29.2804 22.8439 29.2804 24.0779C29.2804 24.6214 29.721 25.0621 30.2645 25.0621C30.8081 25.0621 31.2487 24.6214 31.2487 24.0779C31.2458 22.0894 29.8527 20.3743 27.9069 19.9639V19.0682C27.9069 18.5247 27.4663 18.084 26.9228 18.084C26.3793 18.084 25.9386 18.5247 25.9386 19.0682V20.024C23.9078 20.5785 22.6007 22.5503 22.8804 24.6368C23.16 26.7234 24.9405 28.2809 27.0458 28.2804C28.2635 28.2804 29.2568 29.2554 29.2789 30.4727C29.3015 31.6899 28.3443 32.701 27.1275 32.7452Z" fill="#E31F26"/>
<path d="M12.7744 27.3721C12.7744 35.2541 19.1639 41.6436 27.0459 41.6436C34.9279 41.6436 41.3174 35.2541 41.3174 27.3721C41.3174 19.49 34.9279 13.1006 27.0459 13.1006C19.1677 13.1092 12.7835 19.4939 12.7744 27.3721ZM27.0459 15.0689C33.8409 15.0689 39.349 20.577 39.349 27.3721C39.349 34.1671 33.8409 39.6752 27.0459 39.6752C20.2509 39.6752 14.7428 34.1671 14.7428 27.3721C14.7505 20.5804 20.2542 15.0766 27.0459 15.0689Z" fill="#E31F26"/>
<path d="M46.1686 44.0697L38.4591 47.7123C37.3947 45.7324 35.3528 44.4724 33.1057 44.4089L25.9887 44.2133C24.8618 44.1811 23.7561 43.8957 22.7541 43.3781L22.0299 43.0028C18.322 41.07 13.9023 41.0748 10.1982 43.0153L10.2434 41.3747C10.2583 40.8312 9.8301 40.3785 9.2866 40.3636L1.48241 40.1488C0.938899 40.1339 0.486698 40.5621 0.4718 41.1056L0.000377228 58.2316C-0.0145198 58.7751 0.413653 59.2278 0.95716 59.2427L8.76135 59.4575H8.78826C9.32168 59.4575 9.75802 59.0331 9.77244 58.5002L9.79502 57.6809L11.8225 56.5953C12.6183 56.1671 13.5486 56.0652 14.418 56.3113L26.525 59.7093C26.5462 59.7155 26.5673 59.7203 26.5889 59.7251C27.464 59.9082 28.3559 60 29.2498 59.9995C31.1431 60.0005 33.0144 59.5925 34.7353 58.8025C34.7776 58.7832 34.8184 58.7607 34.8573 58.7352L52.4115 47.3807C52.8488 47.0976 52.9901 46.5234 52.7339 46.0697C51.4307 43.7573 48.5401 42.8764 46.1686 44.0697ZM1.99516 57.3022L2.41228 42.1436L8.2486 42.3041L7.83148 57.4632L1.99516 57.3022ZM33.8487 57.0446C31.7107 58.0096 29.3228 58.2758 27.0248 57.8063L14.9504 54.4169C13.5914 54.033 12.1368 54.192 10.8936 54.8605L9.8575 55.4155L10.1348 45.3369C13.4179 43.1532 17.6285 42.9288 21.125 44.7506L21.8492 45.1259C23.115 45.7795 24.511 46.1399 25.9349 46.1812L33.0524 46.3768C35.0515 46.4345 36.7493 47.8579 37.1549 49.8166L26.5534 49.5239C26.0099 49.509 25.5577 49.9377 25.5423 50.4807C25.5274 51.0242 25.956 51.4769 26.4991 51.4918L38.1986 51.8138H38.226C38.759 51.8133 39.1948 51.389 39.2092 50.8565C39.2212 50.4288 39.1895 50.0006 39.1141 49.5797L47.0216 45.8434C47.0293 45.84 47.037 45.8362 47.0447 45.8323C48.1663 45.2648 49.5224 45.4546 50.4451 46.3086L33.8487 57.0446Z" fill="#E31F26"/>
<path d="M28.0299 10.3338V0.984174C28.0299 0.440668 27.5892 0 27.0457 0C26.5022 0 26.0615 0.440668 26.0615 0.984174V10.3338C26.0615 10.8773 26.5022 11.318 27.0457 11.318C27.5892 11.318 28.0299 10.8773 28.0299 10.3338Z" fill="#E31F26"/>
<path d="M35.4107 10.3339V5.90507C35.4107 5.36157 34.9701 4.9209 34.4266 4.9209C33.8831 4.9209 33.4424 5.36157 33.4424 5.90507V10.3339C33.4424 10.8774 33.8831 11.318 34.4266 11.318C34.9701 11.318 35.4107 10.8774 35.4107 10.3339Z" fill="#E31F26"/>
<path d="M20.648 10.3339V5.90507C20.648 5.36157 20.2074 4.9209 19.6639 4.9209C19.1204 4.9209 18.6797 5.36157 18.6797 5.90507V10.3339C18.6797 10.8774 19.1204 11.318 19.6639 11.318C20.2074 11.318 20.648 10.8774 20.648 10.3339Z" fill="#E31F26"/>
</svg>
