<svg width="58" height="60" viewBox="0 0 58 60" fill="none" xmlns="http://www.w3.org/2000/svg">
<path d="M52.0287 56.9784C52.9219 55.9606 53.411 54.6692 53.411 53.3026C53.411 51.9388 52.9185 50.6888 52.1036 49.7197C52.6174 49.4568 53.0932 49.1129 53.5132 48.692C54.5619 47.6405 55.1392 46.2425 55.1392 44.7551C55.1392 43.3372 54.607 42.0422 53.7334 41.0582C54.166 40.8126 54.5688 40.5082 54.9296 40.1462C55.9782 39.095 56.5558 37.697 56.5558 36.2093C56.5558 34.7956 56.0268 33.5038 55.1582 32.5207C55.598 32.2732 56.0077 31.965 56.375 31.5976C57.423 30.5446 58 29.1469 58 27.6615C58 24.5908 55.5088 22.0926 52.4467 22.0926H46.6577C46.6547 22.0856 46.6606 22.0997 46.6577 22.0926L46.4293 22.0997L46.0049 22.0926C45.2722 22.0997 44.6936 22.0997 44.6936 22.0997L44.0756 22.0928H38.6813C40.4776 16.402 40.3247 10.4629 38.2284 3.56984C37.91 2.52595 37.2765 1.63185 36.396 0.984182C35.5207 0.340485 34.4834 0 33.396 0C31.9951 0 30.6925 0.560861 29.7279 1.57921C28.7637 2.59739 28.2728 3.93035 28.3454 5.33233C28.7491 13.1149 25.1683 15.7935 20.2123 19.5013C18.5806 20.7219 16.7972 22.0569 15.0445 23.6941V21.9977C15.0445 21.2827 14.4666 20.7034 13.7535 20.7034H1.29103C0.577867 20.7034 0 21.2827 0 21.9977V58.7057C0 59.4207 0.577867 60 1.29103 60H13.7538C14.467 60 15.0449 59.4207 15.0449 58.7057V55.4496C17.497 55.6834 19.2879 56.1734 21.0279 57.5103C22.1702 58.388 23.5783 58.8714 24.9927 58.8714H47.7616C48.7424 58.8397 49.321 58.8397 49.321 58.8397L50.3877 58.2597C50.7685 58.0609 52.0287 56.9784 52.0287 56.9784ZM22.5986 55.4556C20.1642 53.5855 17.5625 53.0658 15.0449 52.8479V37.7348C15.0449 37.0198 14.467 36.4405 13.7538 36.4405C13.0407 36.4405 12.4628 37.0198 12.4628 37.7348V57.4116H2.58207V23.2922H12.4628V32.0953C12.4628 32.8103 13.0407 33.3896 13.7538 33.3896C14.467 33.3896 15.0449 32.8103 15.0449 32.0953V27.3711C17.2045 24.9818 19.517 23.2518 21.7569 21.5761C26.716 17.8663 31.3999 14.362 30.9246 5.19807C30.889 4.51209 31.1291 3.85994 31.6011 3.36172C32.0731 2.86316 32.7107 2.58877 33.3965 2.58877C33.9306 2.58877 34.4396 2.75564 34.8688 3.07145C35.2972 3.38657 35.6052 3.82076 35.7594 4.32623C37.8945 11.3474 37.8611 17.2545 35.6543 22.9165C35.499 23.3148 35.5501 23.7642 35.7906 24.1174C36.0311 24.4707 36.4301 24.6819 36.8566 24.6819H52.447C54.0854 24.6819 55.4183 26.0188 55.4183 27.6622C55.4183 28.4569 55.1089 29.2054 54.5493 29.7678C53.9864 30.3307 53.24 30.6409 52.447 30.6409H47.1434C46.4303 30.6409 45.8524 31.2202 45.8524 31.9351C45.8524 32.6501 46.4303 33.2294 47.1434 33.2294H51.0028C52.641 33.2294 53.9739 34.5664 53.9739 36.21C53.9739 37.006 53.6651 37.7541 53.1039 38.3166C52.5431 38.879 51.7968 39.1886 51.0028 39.1886H47.1434C46.4303 39.1886 45.8524 39.7679 45.8524 40.4829C45.8524 41.1978 46.4303 41.7772 47.1434 41.7772H49.5859C51.2243 41.7772 52.5572 43.1134 52.5572 44.7558C52.5572 45.5517 52.2482 46.2999 51.6874 46.8624C51.1252 47.426 50.3788 47.7361 49.5859 47.7361H47.8576H45.7266C45.0134 47.7361 44.4355 48.3154 44.4355 49.0304C44.4355 49.7454 45.0134 50.3247 45.7266 50.3247H47.8576C49.496 50.3247 50.8289 51.6609 50.8289 53.3033C50.8289 54.0992 50.5196 54.8482 49.9601 55.4104C49.4358 55.9349 48.6075 56.2695 47.9876 56.2805C47.9447 56.2812 24.9927 56.2836 24.9927 56.2836C24.143 56.2828 23.2927 55.9891 22.5986 55.4556Z" fill="#E31F26"/>
</svg>
