<svg width="90" height="60" viewBox="0 0 90 60" fill="none" xmlns="http://www.w3.org/2000/svg">
<path d="M90 15.4863C89.9979 14.1042 89.5961 12.7027 88.7075 11.5473L81.5764 2.31814C80.382 0.784093 78.5646 0.00302258 76.7484 0C75.6675 0 74.5669 0.280211 73.5945 0.893617L66.6413 5.26925C65.9101 5.74095 64.6564 6.06472 63.4454 6.05636C62.5046 6.06045 61.5955 5.87003 60.9952 5.57008L54.1862 2.23404C53.0879 1.69922 51.8636 1.48 50.6324 1.47786C48.8642 1.48622 47.0735 1.92574 45.6346 2.93439L44.84 3.49819C44.2049 3.17762 43.2345 2.68921 42.1351 2.1359C40.8168 1.48213 39.2665 1.21846 37.7007 1.2133C36.2862 1.21739 34.872 1.43786 33.6303 1.96841L28.9925 3.97007C28.2377 4.30113 27.0371 4.51734 25.8446 4.512C24.6521 4.51716 23.4536 4.30095 22.6988 3.97007L18.0568 1.96734C17.21 1.60215 16.3049 1.44604 15.4079 1.44497C14.375 1.44604 13.3483 1.65193 12.394 2.04291C11.4409 2.43602 10.5562 3.01636 9.85167 3.81272L1.4001 13.3865C0.463365 14.4446 -0.00192759 15.777 6.00152e-06 17.0886C-0.00192759 18.6527 0.659713 20.2218 1.93588 21.3215L9.81967 28.1248L6.07975 32.071C5.0488 33.1593 4.53551 34.5703 4.53551 35.9655C4.53358 37.4499 5.11647 38.9488 6.271 40.0524L7.02967 40.7815C7.74458 41.4675 8.60362 41.9038 9.50256 42.1365C9.05168 42.9754 8.80524 43.8952 8.80717 44.8167C8.80524 46.3022 9.38813 47.8 10.5406 48.9048L10.5386 48.9037L11.2996 49.6361C12.3827 50.6746 13.7869 51.1918 15.1703 51.1909C15.9138 51.192 16.6583 51.0409 17.3579 50.745C17.6034 51.7526 18.1106 52.7104 18.9083 53.4758L19.6692 54.2082C20.7524 55.2467 22.1542 55.7639 23.5399 55.763C24.6231 55.7641 25.7112 55.4412 26.6479 54.8145C26.922 55.7061 27.3915 56.5512 28.1062 57.2381L28.8672 57.9704C29.948 59.0089 31.3522 59.5262 32.7359 59.5253C34.2095 59.5263 35.6977 58.9408 36.7968 57.7802L40.1022 54.2889L44.5929 58.4928C45.6678 59.5013 47.0475 60.003 48.4095 60C49.9057 60.0032 51.4151 59.3969 52.5166 58.2042L53.2334 57.4274C53.8522 56.7552 54.2561 55.9595 54.4904 55.129L56.23 56.753C57.3068 57.7574 58.6846 58.257 60.0446 58.256C61.5428 58.257 63.0564 57.6507 64.1589 56.4572L64.8717 55.6813C65.6949 54.7917 66.1583 53.6899 66.3013 52.5646C66.7605 52.6836 67.2258 52.7643 67.6951 52.7643C69.1933 52.7643 70.7027 52.1591 71.8063 50.9666L72.5212 50.1906C73.5203 49.1075 74.0174 47.7184 74.0153 46.3488C74.0153 45.9237 73.955 45.5007 73.8619 45.0827C75.1045 44.9161 76.3093 44.3555 77.2254 43.3603L77.9423 42.5835C78.9414 41.5004 79.4364 40.1112 79.4364 38.7406C79.4384 37.2325 78.8372 35.7107 77.6508 34.602L76.3102 33.3494L88.4106 19.8171C89.4969 18.5988 89.9981 17.0306 90 15.4863ZM10.9009 39.2571C10.2598 39.2551 9.63282 39.0233 9.14292 38.5537L8.38301 37.8246C7.85725 37.3218 7.59762 36.6527 7.59551 35.9657C7.59762 35.3213 7.82561 34.6923 8.29512 34.1968L15.955 26.1117C16.454 25.5851 17.1199 25.3214 17.803 25.3205C18.4421 25.3216 19.067 25.5543 19.5609 26.0249L20.3177 26.7552C20.3177 26.7552 21.1011 27.927 21.1031 28.6149C21.1011 29.13 20.9477 29.6318 20.6501 30.0663C20.6246 30.0921 12.3827 38.7802 12.3827 38.7802C11.945 39.0935 11.4275 39.2548 10.9009 39.2571ZM17.0184 47.3215C16.5205 47.846 15.8556 48.1086 15.1726 48.1108C14.5315 48.1097 13.9064 47.877 13.4146 47.4074L12.6536 46.6759L12.6517 46.6749C12.1301 46.1742 11.8682 45.503 11.8682 44.816C11.8682 44.1716 12.0983 43.5426 12.5656 43.0471C12.5656 43.0471 22.776 32.2964 22.8619 32.1928C23.3499 31.7181 23.9787 31.4729 24.628 31.4718C25.2691 31.4729 25.8942 31.7046 26.386 32.1752L27.147 32.9075C27.6704 33.4082 27.9304 34.0785 27.9323 34.7664C27.9302 35.4108 27.7003 36.0407 27.2327 36.5362L17.0184 47.3215ZM25.3869 51.8924C24.8899 52.4181 24.2253 52.6811 23.542 52.683C22.901 52.682 22.2759 52.4492 21.784 51.9786L21.021 51.2471C20.4975 50.7454 20.2356 50.0753 20.2356 49.3882C20.2356 48.8132 20.4289 48.2555 20.799 47.7911L27.9097 40.2842C28.3894 39.8467 28.9906 39.6161 29.6135 39.6161C30.2546 39.6171 30.8797 39.8488 31.3715 40.3194L32.1346 41.0518C32.6561 41.5525 32.918 42.2228 32.92 42.9096C32.9179 43.5552 32.6858 44.1851 32.2204 44.6794L25.3869 51.8924ZM38.8978 51.1001L34.583 55.6549C34.0859 56.1803 33.4202 56.4433 32.7372 56.4453C32.0961 56.4442 31.471 56.2114 30.9792 55.7408L30.2182 55.0094C29.6967 54.5087 29.4347 53.8375 29.4328 53.1505C29.4347 52.5049 29.6648 51.8749 30.1324 51.3815L34.4452 46.8269C34.9443 46.3015 35.6101 46.0376 36.2932 46.0366C36.9323 46.0376 37.5594 46.2693 38.0512 46.741L38.8143 47.4725C39.3358 47.9731 39.5956 48.6434 39.5977 49.3303C39.5953 49.9757 39.3652 50.6056 38.8978 51.1001ZM76.381 38.7447C76.3801 39.3773 76.156 39.9969 75.702 40.4892L74.987 41.2652C74.488 41.8051 73.8109 42.0782 73.1176 42.0793C72.4887 42.0782 71.8729 41.8547 71.3842 41.3978L59.3371 30.1287L57.2539 32.3848L70.1488 44.4678C70.6859 44.9707 70.9557 45.6534 70.9597 46.3506C70.9557 46.9856 70.7337 47.6042 70.2807 48.0967L69.5679 48.8726C69.0688 49.4126 68.3917 49.6846 67.6985 49.6868C67.0695 49.6848 66.4518 49.4603 65.967 49.0062L53.9167 37.7373L51.8356 39.9934L62.5298 49.9963C63.0452 50.4959 63.3092 51.1611 63.3092 51.8436C63.3092 52.4768 63.0872 53.0962 62.6342 53.5877L61.9193 54.3636C61.4222 54.9036 60.7431 55.1767 60.0479 55.1786C59.4169 55.1767 58.8013 54.9521 58.3145 54.498L47.6418 44.5313H47.6399L47.6379 44.5294L45.5609 46.7895L45.563 46.7915L45.6029 46.8297L50.9484 51.8198C51.422 52.3121 51.6674 52.9432 51.6693 53.5959C51.6674 54.2258 51.4473 54.8422 50.9943 55.3338L50.2794 56.1106C49.7804 56.6506 49.1054 56.9216 48.414 56.9237C47.7851 56.9218 47.1693 56.6983 46.6826 56.2422L42.0284 51.8831C42.4334 51.0795 42.6595 50.2074 42.6595 49.3322C42.6614 47.8478 42.0785 46.3511 40.9261 45.2454L40.163 44.513C39.0821 43.4754 37.6799 42.9573 36.2964 42.9592C36.189 42.9592 36.0807 42.9841 35.9754 42.9903C35.9754 42.9646 35.9814 42.9375 35.9814 42.9117C35.9833 41.4273 34.248 38.8227 34.248 38.8227L33.487 38.0925C32.6781 37.3166 31.6911 36.8326 30.6645 36.6381C30.8762 36.032 30.9959 35.401 30.9959 34.7689C30.9959 33.2845 30.4149 31.7865 29.2625 30.682L28.5015 29.9497C27.4184 28.9112 26.0165 28.3929 24.6328 28.3939C24.4712 28.3939 24.3118 28.427 24.1511 28.4416C24.1072 27.0162 23.5396 25.5918 22.4351 24.5305V24.5295L21.6763 23.8003C20.5931 22.7607 19.1913 22.2425 17.8075 22.2435C16.3317 22.2425 14.8458 22.8279 13.7466 23.9886L11.9385 25.8971L3.92889 18.9871C3.35321 18.4886 3.06581 17.7996 3.0637 17.0922C3.06563 16.4994 3.26514 15.919 3.69053 15.4372L12.1419 5.86363C12.4773 5.48296 12.9734 5.13856 13.5543 4.89942C14.1353 4.66046 14.7948 4.52925 15.4115 4.53014C15.9485 4.53014 16.4524 4.62846 16.8555 4.8043L21.4954 6.80685C22.8034 7.36443 24.322 7.59308 25.8481 7.59805C27.376 7.5929 28.8926 7.36425 30.2008 6.80685L34.8386 4.80519C35.5535 4.48978 36.6323 4.2942 37.7051 4.29829C38.8914 4.291 40.0797 4.53938 40.7689 4.89516C41.2066 5.11545 41.6218 5.32454 42.0073 5.51994L37.2774 8.88301C35.7576 9.96402 34.9385 11.6832 34.9406 13.4179C34.9386 14.5662 35.2985 15.735 36.0308 16.727L36.0288 16.7248L36.6536 17.574C37.8399 19.1692 39.6898 19.9894 41.5389 19.9935C42.583 19.9935 43.6467 19.7266 44.5947 19.1514L47.4233 17.4332C48.0002 17.0763 48.8714 16.8509 49.7723 16.855C50.8308 16.8487 51.8975 17.1654 52.5387 17.6421L60.3643 23.3169C62.106 24.5789 64.9427 26.9198 66.5147 28.3929L75.5726 36.8637C76.1089 37.3667 76.3789 38.0465 76.381 38.7447ZM86.1395 17.7578L74.0728 31.2538L68.5942 26.1314C66.8783 24.5291 64.0485 22.1925 62.1504 20.8135L54.327 15.1387C53.0005 14.1882 51.3765 13.7773 49.7709 13.7712C48.4045 13.7753 47.028 14.0765 45.8397 14.7922L43.0131 16.5104C42.5795 16.7741 42.0683 16.9087 41.5373 16.9097C40.5881 16.9129 39.6381 16.4649 39.1085 15.7356L38.4857 14.8875L38.4836 14.8853C38.1523 14.4334 37.9979 13.9264 37.9956 13.4133C37.9997 12.6374 38.3535 11.8844 39.0389 11.3951L47.4024 5.45131C48.1256 4.92183 49.4121 4.55041 50.6341 4.55965C51.483 4.55556 52.2939 4.7282 52.8492 5.00557L59.658 8.34161C60.8189 8.90541 62.129 9.13601 63.447 9.13921C65.1405 9.13086 66.8524 8.75855 68.2629 7.88235L75.2182 3.50584C75.662 3.22563 76.1948 3.08072 76.7503 3.08072C77.6892 3.07876 78.6299 3.50904 79.1627 4.21134L86.2938 13.4405C86.705 13.9691 86.9432 14.7148 86.9432 15.4877C86.9444 16.352 86.6426 17.2024 86.1395 17.7578Z" fill="#E31F26"/>
</svg>
