<svg width="18" height="18" viewBox="0 0 18 18" fill="none" xmlns="http://www.w3.org/2000/svg">
<path fill-rule="evenodd" clip-rule="evenodd" d="M9 0C4.0302 0 0 4.0302 0 9C0 13.9698 4.0302 18 9 18C13.9698 18 18 13.9698 18 9C18 4.0302 13.9698 0 9 0ZM11.4687 9.83001L11.4646 9.86246L11.3179 9.79171C10.4694 9.38242 10.3706 9.33476 10.2501 9.50945C10.1619 9.63707 9.90491 9.92649 9.82746 10.0121C9.74912 10.0965 9.67122 10.103 9.53826 10.0446C9.51637 10.034 9.48659 10.0215 9.44986 10.0062L9.44984 10.0061C9.26126 9.92715 8.88963 9.77148 8.46248 9.40217C8.06494 9.05824 7.79812 8.63645 7.71933 8.50667C7.64346 8.38005 7.7033 8.31625 7.81559 8.19654C7.89741 8.1093 8.00709 7.99237 8.1124 7.79979C8.15716 7.70895 8.13433 7.63757 8.1012 7.57311C8.08235 7.53667 7.98983 7.32022 7.8925 7.09252L7.89247 7.09245L7.89245 7.09241C7.81645 6.91459 7.73751 6.72993 7.68844 6.61878C7.59155 6.39095 7.49211 6.39461 7.41278 6.39752H7.41276C7.40413 6.39784 7.39573 6.39815 7.3876 6.39815C7.12974 6.37652 6.94126 6.37998 6.77517 6.54697C6.05262 7.31441 6.23482 8.10608 6.85307 8.94793C8.06808 10.4845 8.71542 10.7675 9.89909 11.1603C10.2187 11.2585 10.5102 11.2446 10.7407 11.2126C10.9977 11.1733 11.5318 10.9007 11.6433 10.5957C11.7574 10.2907 11.7574 10.0377 11.7238 9.97926C11.6943 9.92712 11.6211 9.89566 11.5102 9.84795L11.4687 9.83001ZM3.67598 8.78566C3.67822 4.2493 9.37494 1.91709 12.8171 5.13269L12.8104 5.14956C13.82 6.12121 14.3751 7.41428 14.3751 8.78826C14.3733 12.703 10.0057 15.1559 6.46681 13.3086L3.63076 14.0233L4.39003 11.3575C3.92175 10.5767 3.67598 9.69242 3.67598 8.78566ZM6.76004 12.4529C9.72682 14.1384 13.4779 12.0761 13.4806 8.77398C13.4806 7.63189 13.0177 6.55425 12.1783 5.75003C11.3385 4.93888 10.2233 4.49113 9.03515 4.49113C5.53788 4.49113 3.41677 8.20294 5.263 11.043L5.37 11.2053L4.92008 12.7821L6.59888 12.3603L6.76004 12.4529Z" fill="#40C152"/>
</svg>
