<svg width="63" height="60" viewBox="0 0 63 60" fill="none" xmlns="http://www.w3.org/2000/svg">
<path d="M62.3849 32.8871C61.8237 27.2423 59.3018 21.9206 55.2836 17.9022C51.8496 14.4684 47.6466 12.2617 43.224 11.2806V8.17869C45.0303 7.7293 46.373 6.09425 46.373 4.15081C46.373 1.86201 44.511 0 42.2222 0H33.4322C31.1434 0 29.2814 1.86201 29.2814 4.15081C29.2814 6.09413 30.6241 7.72918 32.4303 8.17869V11.2892C28.0213 12.2746 23.8321 14.4782 20.408 17.9023C19.6586 18.6517 18.9676 19.4378 18.3351 20.2547C18.3045 20.2524 18.2738 20.2501 18.2426 20.2501H9.54284C8.8687 20.2501 8.32201 20.7967 8.32201 21.4709C8.32201 22.1452 8.8687 22.6918 9.54284 22.6918H16.6739C15.7788 24.1903 15.0571 25.7641 14.5077 27.3841H1.22083C0.546686 27.3841 0 27.9307 0 28.605C0 29.2792 0.546686 29.8258 1.22083 29.8258H13.8178C13.466 31.3703 13.264 32.9421 13.2119 34.5183H7.81329C7.13915 34.5183 6.59247 35.0648 6.59247 35.7391C6.59247 36.4134 7.13915 36.9599 7.81329 36.9599H13.2509C13.3539 38.5402 13.608 40.1121 14.0131 41.6524H6.10414C5.43 41.6524 4.88331 42.199 4.88331 42.8733C4.88331 43.5475 5.43 44.0941 6.10414 44.0941H14.7923C15.9899 47.2623 17.8616 50.2317 20.408 52.7781C24.4301 56.8002 29.7573 59.3227 35.408 59.881C36.2145 59.9606 37.0216 60 37.8276 60C42.5915 60 47.2948 58.6213 51.2857 56.0224C51.8507 55.6545 52.0105 54.8982 51.6426 54.3332C51.2746 53.7682 50.5183 53.6084 49.9533 53.9763C41.2174 59.665 29.5179 58.435 22.1345 51.0516C13.4712 42.3883 13.4712 28.2923 22.1345 19.629C30.7976 10.9658 44.8936 10.9658 53.557 19.629C60.9306 27.0027 62.1673 38.6923 56.4974 47.4239C56.1302 47.9894 56.291 48.7456 56.8564 49.1127C57.4221 49.4799 58.178 49.3191 58.5451 48.7536C61.5745 44.0882 62.9382 38.4535 62.3849 32.8871ZM31.7231 4.15093C31.7231 3.20846 32.4898 2.44178 33.4322 2.44178H42.2222C43.1647 2.44178 43.9314 3.20846 43.9314 4.15093C43.9314 5.09341 43.1647 5.86009 42.2222 5.86009H42.0032H33.6511H33.4322C32.4898 5.86009 31.7231 5.09329 31.7231 4.15093ZM34.872 10.8695V8.30175H40.7823V10.8651C38.8197 10.6317 36.8342 10.6332 34.872 10.8695Z" fill="#E31F26"/>
<path d="M54.422 50.6932C54.0997 50.6932 53.7859 50.8239 53.559 51.0509C53.3307 51.278 53.2012 51.593 53.2012 51.914C53.2012 52.2351 53.3307 52.5501 53.559 52.7772C53.7859 53.0054 54.0998 53.1349 54.422 53.1349C54.7431 53.1349 55.0568 53.0054 55.2851 52.7772C55.5122 52.5501 55.6428 52.2351 55.6428 51.914C55.6428 51.593 55.5123 51.278 55.2851 51.0509C55.0568 50.8239 54.7429 50.6932 54.422 50.6932Z" fill="#E31F26"/>
<path d="M37.8468 16.4014C27.4041 16.4014 18.9082 24.8971 18.9082 35.3399C18.9082 45.7828 27.4041 54.2785 37.8468 54.2785C48.2895 54.2785 56.7853 45.7828 56.7853 35.3399C56.7853 24.8971 48.2895 16.4014 37.8468 16.4014ZM37.8468 51.8369C28.7503 51.8369 21.3499 44.4363 21.3499 35.3399C21.3499 26.2436 28.7503 18.843 37.8468 18.843C46.9433 18.843 54.3437 26.2436 54.3437 35.3399C54.3437 44.4363 46.9433 51.8369 37.8468 51.8369Z" fill="#E31F26"/>
<path d="M45.5675 25.8908L39.5207 31.9374C39.015 31.6874 38.4462 31.5461 37.845 31.5461C37.2436 31.5461 36.6749 31.6874 36.1693 31.9374L33.4631 29.2312C32.9862 28.7544 32.2134 28.7544 31.7365 29.2312C31.2597 29.7079 31.2597 30.4809 31.7365 30.9577L34.4427 33.6639C34.1925 34.1695 34.0514 34.7383 34.0514 35.3396C34.0514 37.4314 35.7531 39.1332 37.845 39.1332C39.9369 39.1332 41.6386 37.4314 41.6386 35.3396C41.6386 34.7383 41.4973 34.1695 41.2473 33.6639L47.1166 27.7946L47.2939 27.6172C47.7707 27.1405 47.7707 26.3675 47.2939 25.8908C46.8172 25.414 46.0444 25.414 45.5675 25.8908ZM37.845 36.6917C37.0996 36.6917 36.493 36.0852 36.493 35.3397C36.493 34.5943 37.0996 33.9878 37.845 33.9878C38.5904 33.9878 39.1969 34.5943 39.1969 35.3397C39.1969 36.0852 38.5904 36.6917 37.845 36.6917Z" fill="#E31F26"/>
<path d="M50.8988 34.1338H49.7677C49.0936 34.1338 48.5469 34.6803 48.5469 35.3546C48.5469 36.0288 49.0936 36.5754 49.7677 36.5754H50.8988C51.5729 36.5754 52.1196 36.0288 52.1196 35.3546C52.1196 34.6803 51.5729 34.1338 50.8988 34.1338Z" fill="#E31F26"/>
<path d="M25.9221 34.1045H24.7911C24.117 34.1045 23.5703 34.651 23.5703 35.3253C23.5703 35.9996 24.117 36.5461 24.7911 36.5461H25.9221C26.5962 36.5461 27.1429 35.9996 27.1429 35.3253C27.1429 34.651 26.5962 34.1045 25.9221 34.1045Z" fill="#E31F26"/>
<path d="M37.8614 24.639C38.5356 24.639 39.0822 24.0924 39.0822 23.4182V22.2872C39.0822 21.613 38.5356 21.0664 37.8614 21.0664C37.1873 21.0664 36.6406 21.613 36.6406 22.2872V23.4182C36.6406 24.0924 37.1873 24.639 37.8614 24.639Z" fill="#E31F26"/>
<path d="M37.8302 46.041C37.1561 46.041 36.6094 46.5876 36.6094 47.2618V48.3928C36.6094 49.067 37.1561 49.6136 37.8302 49.6136C38.5043 49.6136 39.051 49.067 39.051 48.3928V47.2618C39.051 46.5876 38.5043 46.041 37.8302 46.041Z" fill="#E31F26"/>
<path d="M1.22081 41.6523C0.899736 41.6523 0.584767 41.783 0.357697 42.01C0.130626 42.2371 0 42.5521 0 42.8732C0 43.1954 0.130504 43.5092 0.357697 43.7363C0.584889 43.9633 0.899736 44.094 1.22081 44.094C1.54188 44.094 1.85685 43.9633 2.0838 43.7363C2.31087 43.5092 2.44162 43.1942 2.44162 42.8732C2.44162 42.5521 2.31099 42.2371 2.0838 42.01C1.85685 41.783 1.54188 41.6523 1.22081 41.6523Z" fill="#E31F26"/>
</svg>
